<svg width="205" height="167" viewBox="0 0 205 167" fill="none" xmlns="http://www.w3.org/2000/svg">
<g clip-path="url(#clip0_21_542)">
<path d="M168.269 58.5509H34.0536C27.8123 58.5509 22.7527 63.5984 22.7527 69.8247V147.562C22.7527 153.789 27.8123 158.836 34.0536 158.836H168.269C174.51 158.836 179.57 153.789 179.57 147.562V69.8247C179.57 63.5984 174.51 58.5509 168.269 58.5509Z" fill="#ABBCD3"/>
<path d="M163.907 38.9001H24.1355C20.6017 38.9001 17.7371 41.7579 17.7371 45.2832V144.34C17.7371 147.865 20.6017 150.723 24.1355 150.723H163.907C167.441 150.723 170.305 147.865 170.305 144.34V45.2832C170.305 41.7579 167.441 38.9001 163.907 38.9001Z" fill="#383856"/>
<path d="M95.008 38.8625L73.1478 150.76H64.1851L86.0578 38.8625H95.008Z" fill="#4A4A68"/>
<path d="M136.604 38.7874L114.857 150.685H94.0149L115.888 38.7874H136.604Z" fill="#4A4A68"/>
<path d="M152.204 38.7874L130.331 150.685H121.381L143.254 38.7874H152.204Z" fill="#4A4A68"/>
<path d="M29.9177 132.652C29.4943 132.652 29.0883 132.484 28.7889 132.185C28.4895 131.887 28.3213 131.482 28.3213 131.059V71.317C28.3213 70.8946 28.4895 70.4895 28.7889 70.1908C29.0883 69.8922 29.4943 69.7244 29.9177 69.7244C30.3411 69.7244 30.7472 69.8922 31.0466 70.1908C31.346 70.4895 31.5142 70.8946 31.5142 71.317V131.059C31.5142 131.482 31.346 131.887 31.0466 132.185C30.7472 132.484 30.3411 132.652 29.9177 132.652Z" fill="#4A4A68"/>
<path d="M89.0495 70.1383H37.5984C37.195 70.1383 36.8081 69.9784 36.5229 69.6939C36.2376 69.4093 36.0774 69.0233 36.0774 68.6209C36.0774 68.2185 36.2376 67.8325 36.5229 67.5479C36.8081 67.2634 37.195 67.1035 37.5984 67.1035H89.0495C89.4529 67.1035 89.8398 67.2634 90.1251 67.5479C90.4103 67.8325 90.5706 68.2185 90.5706 68.6209C90.5706 69.0233 90.4103 69.4093 90.1251 69.6939C89.8398 69.9784 89.4529 70.1383 89.0495 70.1383Z" fill="#3BC197"/>
<path d="M70.5457 76.6593H37.5984C37.195 76.6593 36.8081 76.4994 36.5229 76.2149C36.2376 75.9303 36.0774 75.5443 36.0774 75.1419C36.0774 74.7395 36.2376 74.3535 36.5229 74.0689C36.8081 73.7844 37.195 73.6245 37.5984 73.6245H70.5457C70.9492 73.6245 71.336 73.7844 71.6213 74.0689C71.9065 74.3535 72.0668 74.7395 72.0668 75.1419C72.0668 75.5443 71.9065 75.9303 71.6213 76.2149C71.336 76.4994 70.9492 76.6593 70.5457 76.6593Z" fill="#F76B9A"/>
<path d="M57.4473 83.5313H37.5984C37.195 83.5313 36.8081 83.3715 36.5229 83.0869C36.2376 82.8024 36.0774 82.4164 36.0774 82.014C36.0774 81.6115 36.2376 81.2256 36.5229 80.941C36.8081 80.6564 37.195 80.4966 37.5984 80.4966H57.4473C57.8507 80.4966 58.2376 80.6564 58.5228 80.941C58.8081 81.2256 58.9683 81.6115 58.9683 82.014C58.9683 82.4164 58.8081 82.8024 58.5228 83.0869C58.2376 83.3715 57.8507 83.5313 57.4473 83.5313Z" fill="#43FFFF"/>
<path d="M68.5093 83.5313H63.3177C62.9143 83.5313 62.5274 83.3715 62.2421 83.0869C61.9569 82.8024 61.7966 82.4164 61.7966 82.014C61.7966 81.6115 61.9569 81.2256 62.2421 80.941C62.5274 80.6564 62.9143 80.4966 63.3177 80.4966H68.5093C68.9127 80.4966 69.2996 80.6564 69.5848 80.941C69.8701 81.2256 70.0303 81.6115 70.0303 82.014C70.0303 82.4164 69.8701 82.8024 69.5848 83.0869C69.2996 83.3715 68.9127 83.5313 68.5093 83.5313Z" fill="#43FFFF"/>
<path d="M82.8774 83.5313H75.8128C75.4094 83.5313 75.0225 83.3715 74.7372 83.0869C74.452 82.8024 74.2917 82.4164 74.2917 82.014C74.2917 81.6115 74.452 81.2256 74.7372 80.941C75.0225 80.6564 75.4094 80.4966 75.8128 80.4966H82.8774C83.2808 80.4966 83.6677 80.6564 83.9529 80.941C84.2382 81.2256 84.3984 81.6115 84.3984 82.014C84.3984 82.4164 84.2382 82.8024 83.9529 83.0869C83.6677 83.3715 83.2808 83.5313 82.8774 83.5313Z" fill="#43FFFF"/>
<path d="M89.0495 96.2473H37.5984C37.195 96.2473 36.8081 96.0874 36.5229 95.8029C36.2376 95.5183 36.0774 95.1323 36.0774 94.7299C36.0774 94.3275 36.2376 93.9415 36.5229 93.657C36.8081 93.3724 37.195 93.2125 37.5984 93.2125H89.0495C89.4529 93.2125 89.8398 93.3724 90.1251 93.657C90.4103 93.9415 90.5706 94.3275 90.5706 94.7299C90.5706 95.1323 90.4103 95.5183 90.1251 95.8029C89.8398 96.0874 89.4529 96.2473 89.0495 96.2473Z" fill="#3BC197"/>
<path d="M70.5457 102.831H37.5984C37.195 102.831 36.8081 102.671 36.5229 102.386C36.2376 102.102 36.0774 101.716 36.0774 101.314C36.0774 100.911 36.2376 100.525 36.5229 100.241C36.8081 99.956 37.195 99.7961 37.5984 99.7961H70.5457C70.9492 99.7961 71.336 99.956 71.6213 100.241C71.9065 100.525 72.0668 100.911 72.0668 101.314C72.0668 101.716 71.9065 102.102 71.6213 102.386C71.336 102.671 70.9492 102.831 70.5457 102.831Z" fill="#F76B9A"/>
<path d="M57.4473 109.653H37.5984C37.195 109.653 36.8081 109.493 36.5229 109.209C36.2376 108.924 36.0774 108.538 36.0774 108.136C36.0774 107.733 36.2376 107.347 36.5229 107.063C36.8081 106.778 37.195 106.618 37.5984 106.618H57.4473C57.8507 106.618 58.2376 106.778 58.5228 107.063C58.8081 107.347 58.9683 107.733 58.9683 108.136C58.9683 108.538 58.8081 108.924 58.5228 109.209C58.2376 109.493 57.8507 109.653 57.4473 109.653Z" fill="#43FFFF"/>
<path d="M68.5093 109.653H63.3177C62.9143 109.653 62.5274 109.493 62.2421 109.209C61.9569 108.924 61.7966 108.538 61.7966 108.136C61.7966 107.733 61.9569 107.347 62.2421 107.063C62.5274 106.778 62.9143 106.618 63.3177 106.618H68.5093C68.9127 106.618 69.2996 106.778 69.5848 107.063C69.8701 107.347 70.0303 107.733 70.0303 108.136C70.0303 108.538 69.8701 108.924 69.5848 109.209C69.2996 109.493 68.9127 109.653 68.5093 109.653Z" fill="#43FFFF"/>
<path d="M82.8774 109.653H75.8128C75.4094 109.653 75.0225 109.493 74.7372 109.209C74.452 108.924 74.2917 108.538 74.2917 108.136C74.2917 107.733 74.452 107.347 74.7372 107.063C75.0225 106.778 75.4094 106.618 75.8128 106.618H82.8774C83.2808 106.618 83.6677 106.778 83.9529 107.063C84.2382 107.347 84.3984 107.733 84.3984 108.136C84.3984 108.538 84.2382 108.924 83.9529 109.209C83.6677 109.493 83.2808 109.653 82.8774 109.653Z" fill="#43FFFF"/>
<path d="M89.0495 89.9646H37.5984C37.175 89.9646 36.7689 89.7968 36.4695 89.4981C36.1702 89.1994 36.002 88.7943 36.002 88.3719C36.002 87.9495 36.1702 87.5444 36.4695 87.2458C36.7689 86.9471 37.175 86.7793 37.5984 86.7793H89.0495C89.4729 86.7793 89.879 86.9471 90.1784 87.2458C90.4778 87.5444 90.646 87.9495 90.646 88.3719C90.646 88.7943 90.4778 89.1994 90.1784 89.4981C89.879 89.7968 89.4729 89.9646 89.0495 89.9646Z" fill="#3C3C5B"/>
<path d="M89.0495 116.086H37.5984C37.175 116.086 36.7689 115.918 36.4695 115.62C36.1702 115.321 36.002 114.916 36.002 114.494C36.002 114.071 36.1702 113.666 36.4695 113.367C36.7689 113.069 37.175 112.901 37.5984 112.901H89.0495C89.4729 112.901 89.879 113.069 90.1784 113.367C90.4778 113.666 90.646 114.071 90.646 114.494C90.646 114.916 90.4778 115.321 90.1784 115.62C89.879 115.918 89.4729 116.086 89.0495 116.086Z" fill="#3C3C5B"/>
<path d="M89.0495 122.369H37.5984C37.195 122.369 36.8081 122.209 36.5229 121.924C36.2376 121.64 36.0774 121.254 36.0774 120.851C36.0774 120.449 36.2376 120.063 36.5229 119.779C36.8081 119.494 37.195 119.334 37.5984 119.334H89.0495C89.4529 119.334 89.8398 119.494 90.1251 119.779C90.4103 120.063 90.5706 120.449 90.5706 120.851C90.5706 121.254 90.4103 121.64 90.1251 121.924C89.8398 122.209 89.4529 122.369 89.0495 122.369Z" fill="#3BC197"/>
<path d="M70.5457 128.902H37.5984C37.195 128.902 36.8081 128.743 36.5229 128.458C36.2376 128.173 36.0774 127.787 36.0774 127.385C36.0774 126.983 36.2376 126.597 36.5229 126.312C36.8081 126.028 37.195 125.868 37.5984 125.868H70.5457C70.9492 125.868 71.336 126.028 71.6213 126.312C71.9065 126.597 72.0668 126.983 72.0668 127.385C72.0668 127.787 71.9065 128.173 71.6213 128.458C71.336 128.743 70.9492 128.902 70.5457 128.902Z" fill="#F76B9A"/>
<path d="M57.4473 135.762H37.5984C37.195 135.762 36.8081 135.602 36.5229 135.318C36.2376 135.033 36.0774 134.647 36.0774 134.245C36.0774 133.842 36.2376 133.456 36.5229 133.172C36.8081 132.887 37.195 132.727 37.5984 132.727H57.4473C57.8507 132.727 58.2376 132.887 58.5228 133.172C58.8081 133.456 58.9683 133.842 58.9683 134.245C58.9683 134.647 58.8081 135.033 58.5228 135.318C58.2376 135.602 57.8507 135.762 57.4473 135.762Z" fill="#43FFFF"/>
<path d="M68.5093 135.762H63.3177C62.9143 135.762 62.5274 135.602 62.2421 135.318C61.9569 135.033 61.7966 134.647 61.7966 134.245C61.7966 133.842 61.9569 133.456 62.2421 133.172C62.5274 132.887 62.9143 132.727 63.3177 132.727H68.5093C68.9127 132.727 69.2996 132.887 69.5848 133.172C69.8701 133.456 70.0303 133.842 70.0303 134.245C70.0303 134.647 69.8701 135.033 69.5848 135.318C69.2996 135.602 68.9127 135.762 68.5093 135.762Z" fill="#43FFFF"/>
<path d="M82.8774 135.762H75.8128C75.4094 135.762 75.0225 135.602 74.7372 135.318C74.452 135.033 74.2917 134.647 74.2917 134.245C74.2917 133.842 74.452 133.456 74.7372 133.172C75.0225 132.887 75.4094 132.727 75.8128 132.727H82.8774C83.2808 132.727 83.6677 132.887 83.9529 133.172C84.2382 133.456 84.3984 133.842 84.3984 134.245C84.3984 134.647 84.2382 135.033 83.9529 135.318C83.6677 135.602 83.2808 135.762 82.8774 135.762Z" fill="#43FFFF"/>
<path d="M157.773 128.2H131.374C131.158 128.2 130.95 128.114 130.797 127.961C130.643 127.808 130.557 127.601 130.557 127.385C130.557 127.169 130.643 126.961 130.797 126.809C130.95 126.656 131.158 126.57 131.374 126.57H157.773C157.989 126.57 158.197 126.656 158.35 126.809C158.504 126.961 158.59 127.169 158.59 127.385C158.59 127.601 158.504 127.808 158.35 127.961C158.197 128.114 157.989 128.2 157.773 128.2Z" fill="#6F6F8E"/>
<path d="M148.332 131.548H131.4C131.183 131.548 130.975 131.463 130.822 131.31C130.669 131.157 130.583 130.949 130.583 130.733C130.582 130.516 130.668 130.307 130.821 130.152C130.974 129.998 131.182 129.909 131.4 129.906H148.332C148.55 129.909 148.758 129.998 148.911 130.152C149.064 130.307 149.149 130.516 149.149 130.733C149.149 130.949 149.063 131.157 148.91 131.31C148.757 131.463 148.549 131.548 148.332 131.548Z" fill="#6F6F8E"/>
<path d="M141.582 135.072H131.4C131.182 135.069 130.974 134.98 130.821 134.825C130.668 134.671 130.582 134.462 130.583 134.245C130.583 134.028 130.669 133.821 130.822 133.668C130.975 133.515 131.183 133.429 131.4 133.429H141.582C141.798 133.429 142.006 133.515 142.159 133.668C142.313 133.821 142.399 134.028 142.399 134.245C142.399 134.462 142.313 134.671 142.16 134.825C142.007 134.98 141.8 135.069 141.582 135.072Z" fill="#6F6F8E"/>
<path d="M147.251 135.072H144.561C144.343 135.069 144.135 134.98 143.982 134.825C143.83 134.671 143.744 134.462 143.744 134.245C143.744 134.028 143.83 133.821 143.983 133.668C144.136 133.515 144.344 133.429 144.561 133.429H147.226C147.443 133.429 147.65 133.515 147.804 133.668C147.957 133.821 148.043 134.028 148.043 134.245C148.043 134.458 147.961 134.663 147.813 134.817C147.666 134.971 147.465 135.063 147.251 135.072Z" fill="#6F6F8E"/>
<path d="M154.617 135.072H150.997C150.778 135.069 150.569 134.981 150.414 134.826C150.259 134.672 150.171 134.463 150.167 134.245C150.171 134.027 150.26 133.82 150.415 133.667C150.57 133.515 150.779 133.429 150.997 133.429H154.617C154.834 133.429 155.042 133.515 155.195 133.668C155.348 133.821 155.435 134.028 155.435 134.245C155.435 134.462 155.349 134.671 155.196 134.825C155.043 134.98 154.835 135.069 154.617 135.072Z" fill="#6F6F8E"/>
<path d="M157.773 113.315H131.374C131.158 113.315 130.95 113.229 130.797 113.076C130.643 112.923 130.557 112.716 130.557 112.5C130.557 112.283 130.643 112.076 130.797 111.923C130.95 111.77 131.158 111.684 131.374 111.684H157.773C157.88 111.684 157.986 111.706 158.085 111.747C158.184 111.787 158.274 111.848 158.35 111.923C158.426 111.999 158.486 112.089 158.527 112.188C158.568 112.287 158.59 112.393 158.59 112.5C158.59 112.607 158.568 112.713 158.527 112.812C158.486 112.91 158.426 113 158.35 113.076C158.274 113.152 158.184 113.212 158.085 113.253C157.986 113.294 157.88 113.315 157.773 113.315Z" fill="#6F6F8E"/>
<path d="M148.332 116.625H131.4C131.183 116.625 130.975 116.539 130.822 116.387C130.669 116.234 130.583 116.026 130.583 115.81C130.583 115.594 130.669 115.387 130.822 115.234C130.975 115.081 131.183 114.995 131.4 114.995H148.332C148.549 114.995 148.757 115.081 148.91 115.234C149.063 115.387 149.149 115.594 149.149 115.81C149.149 116.026 149.063 116.234 148.91 116.387C148.757 116.539 148.549 116.625 148.332 116.625Z" fill="#6F6F8E"/>
<path d="M141.582 120.187H131.4C131.183 120.187 130.975 120.101 130.822 119.948C130.669 119.795 130.583 119.588 130.583 119.372C130.583 119.156 130.669 118.948 130.822 118.795C130.975 118.643 131.183 118.557 131.4 118.557H141.582C141.798 118.557 142.006 118.643 142.159 118.795C142.313 118.948 142.399 119.156 142.399 119.372C142.399 119.588 142.313 119.795 142.159 119.948C142.006 120.101 141.798 120.187 141.582 120.187Z" fill="#6F6F8E"/>
<path d="M147.251 120.187H144.561C144.344 120.187 144.136 120.101 143.983 119.948C143.83 119.795 143.744 119.588 143.744 119.372C143.744 119.156 143.83 118.948 143.983 118.795C144.136 118.643 144.344 118.557 144.561 118.557H147.226C147.443 118.557 147.65 118.643 147.804 118.795C147.957 118.948 148.043 119.156 148.043 119.372C148.043 119.588 147.957 119.795 147.804 119.948C147.65 120.101 147.443 120.187 147.226 120.187H147.251Z" fill="#6F6F8E"/>
<path d="M154.617 120.187H150.997C150.78 120.187 150.572 120.101 150.419 119.948C150.266 119.795 150.18 119.588 150.18 119.372C150.18 119.156 150.266 118.948 150.419 118.795C150.572 118.643 150.78 118.557 150.997 118.557H154.617C154.834 118.557 155.042 118.643 155.195 118.795C155.348 118.948 155.434 119.156 155.434 119.372C155.434 119.588 155.348 119.795 155.195 119.948C155.042 120.101 154.834 120.187 154.617 120.187Z" fill="#6F6F8E"/>
<path d="M157.773 83.5564H131.374C131.158 83.5564 130.95 83.4705 130.797 83.3177C130.643 83.1648 130.557 82.9575 130.557 82.7413C130.557 82.5251 130.643 82.3178 130.797 82.1649C130.95 82.012 131.158 81.9261 131.374 81.9261H157.773C157.989 81.9261 158.197 82.012 158.35 82.1649C158.504 82.3178 158.59 82.5251 158.59 82.7413C158.59 82.9575 158.504 83.1648 158.35 83.3177C158.197 83.4705 157.989 83.5564 157.773 83.5564Z" fill="#6F6F8E"/>
<path d="M148.332 86.9047H131.4C131.292 86.9047 131.186 86.8836 131.087 86.8426C130.988 86.8016 130.898 86.7416 130.822 86.6659C130.746 86.5902 130.686 86.5004 130.645 86.4015C130.604 86.3026 130.583 86.1966 130.583 86.0895C130.583 85.9825 130.604 85.8765 130.645 85.7776C130.686 85.6787 130.746 85.5889 130.822 85.5132C130.898 85.4375 130.988 85.3774 131.087 85.3365C131.186 85.2955 131.292 85.2744 131.4 85.2744H148.332C148.439 85.2744 148.546 85.2955 148.645 85.3365C148.744 85.3774 148.834 85.4375 148.91 85.5132C148.986 85.5889 149.046 85.6787 149.087 85.7776C149.128 85.8765 149.149 85.9825 149.149 86.0895C149.149 86.1966 149.128 86.3026 149.087 86.4015C149.046 86.5004 148.986 86.5902 148.91 86.6659C148.834 86.7416 148.744 86.8016 148.645 86.8426C148.546 86.8836 148.439 86.9047 148.332 86.9047Z" fill="#6F6F8E"/>
<path d="M141.582 90.4286H131.4C131.182 90.4253 130.974 90.3366 130.821 90.1817C130.668 90.0269 130.582 89.8182 130.583 89.6009C130.583 89.4938 130.604 89.3878 130.645 89.289C130.686 89.1901 130.746 89.1002 130.822 89.0245C130.898 88.9488 130.988 88.8888 131.087 88.8478C131.186 88.8068 131.292 88.7858 131.4 88.7858H141.582C141.689 88.7858 141.795 88.8068 141.894 88.8478C141.994 88.8888 142.084 88.9488 142.159 89.0245C142.235 89.1002 142.296 89.1901 142.337 89.289C142.378 89.3878 142.399 89.4938 142.399 89.6009C142.399 89.8182 142.313 90.0269 142.16 90.1817C142.007 90.3366 141.8 90.4253 141.582 90.4286Z" fill="#6F6F8E"/>
<path d="M147.251 90.4286H144.561C144.343 90.4253 144.135 90.3366 143.982 90.1817C143.83 90.0269 143.744 89.8182 143.744 89.6009C143.744 89.4938 143.765 89.3878 143.806 89.289C143.847 89.1901 143.907 89.1002 143.983 89.0245C144.059 88.9488 144.149 88.8888 144.248 88.8478C144.347 88.8068 144.454 88.7858 144.561 88.7858H147.226C147.333 88.7858 147.439 88.8068 147.539 88.8478C147.638 88.8888 147.728 88.9488 147.804 89.0245C147.88 89.1002 147.94 89.1901 147.981 89.289C148.022 89.3878 148.043 89.4938 148.043 89.6009C148.043 89.814 147.961 90.019 147.813 90.1732C147.666 90.3274 147.465 90.4189 147.251 90.4286Z" fill="#6F6F8E"/>
<path d="M154.617 90.4286H150.997C150.778 90.4253 150.569 90.3371 150.414 90.1826C150.259 90.028 150.171 89.8194 150.167 89.6009C150.171 89.3836 150.26 89.1762 150.415 89.0237C150.57 88.8712 150.779 88.7857 150.997 88.7858H154.617C154.725 88.7858 154.831 88.8068 154.93 88.8478C155.029 88.8888 155.119 88.9488 155.195 89.0245C155.271 89.1002 155.331 89.1901 155.372 89.289C155.413 89.3878 155.435 89.4938 155.435 89.6009C155.435 89.8182 155.349 90.0269 155.196 90.1817C155.043 90.3366 154.835 90.4253 154.617 90.4286Z" fill="#6F6F8E"/>
<path d="M157.773 98.4419H131.374C131.157 98.4386 130.949 98.3499 130.796 98.1951C130.643 98.0402 130.557 97.8315 130.557 97.6142C130.557 97.398 130.643 97.1907 130.797 97.0378C130.95 96.8849 131.158 96.7991 131.374 96.7991H157.773C157.99 96.799 158.2 96.8845 158.355 97.037C158.51 97.1896 158.599 97.3969 158.602 97.6142C158.599 97.8327 158.511 98.0413 158.356 98.1959C158.201 98.3504 157.992 98.4386 157.773 98.4419Z" fill="#6F6F8E"/>
<path d="M148.332 101.79H131.4C131.182 101.787 130.974 101.698 130.821 101.543C130.668 101.388 130.582 101.18 130.583 100.962C130.583 100.746 130.669 100.539 130.822 100.386C130.975 100.233 131.183 100.147 131.4 100.147H148.332C148.549 100.147 148.757 100.233 148.91 100.386C149.063 100.539 149.149 100.746 149.149 100.962C149.149 101.18 149.064 101.388 148.911 101.543C148.758 101.698 148.55 101.787 148.332 101.79Z" fill="#6F6F8E"/>
<path d="M141.582 105.339H131.4C131.183 105.339 130.975 105.253 130.822 105.1C130.669 104.947 130.583 104.74 130.583 104.524C130.583 104.308 130.669 104.1 130.822 103.947C130.975 103.795 131.183 103.709 131.4 103.709H141.582C141.798 103.709 142.006 103.795 142.159 103.947C142.313 104.1 142.399 104.308 142.399 104.524C142.399 104.74 142.313 104.947 142.159 105.1C142.006 105.253 141.798 105.339 141.582 105.339Z" fill="#6F6F8E"/>
<path d="M147.251 105.339H144.561C144.344 105.339 144.136 105.253 143.983 105.1C143.83 104.947 143.744 104.74 143.744 104.524C143.744 104.308 143.83 104.1 143.983 103.947C144.136 103.795 144.344 103.709 144.561 103.709H147.226C147.443 103.709 147.65 103.795 147.804 103.947C147.957 104.1 148.043 104.308 148.043 104.524C148.043 104.74 147.957 104.947 147.804 105.1C147.65 105.253 147.443 105.339 147.226 105.339H147.251Z" fill="#6F6F8E"/>
<path d="M154.617 105.339H150.997C150.78 105.339 150.572 105.253 150.419 105.1C150.266 104.947 150.18 104.74 150.18 104.524C150.18 104.308 150.266 104.1 150.419 103.947C150.572 103.795 150.78 103.709 150.997 103.709H154.617C154.834 103.709 155.042 103.795 155.195 103.947C155.348 104.1 155.434 104.308 155.434 104.524C155.434 104.74 155.348 104.947 155.195 105.1C155.042 105.253 154.834 105.339 154.617 105.339Z" fill="#6F6F8E"/>
<path d="M157.773 68.671H131.374C131.158 68.671 130.95 68.5851 130.797 68.4323C130.643 68.2794 130.557 68.0721 130.557 67.8559C130.557 67.6397 130.643 67.4324 130.797 67.2795C130.95 67.1266 131.158 67.0408 131.374 67.0408H157.773C157.88 67.0408 157.986 67.0619 158.085 67.1028C158.184 67.1438 158.274 67.2038 158.35 67.2795C158.426 67.3552 158.486 67.4451 158.527 67.544C158.568 67.6429 158.59 67.7489 158.59 67.8559C158.59 67.9629 158.568 68.0689 158.527 68.1678C158.486 68.2667 158.426 68.3566 158.35 68.4323C158.274 68.508 158.184 68.568 158.085 68.609C157.986 68.6499 157.88 68.671 157.773 68.671Z" fill="#6F6F8E"/>
<path d="M148.332 72.0193H131.4C131.183 72.0193 130.975 71.9334 130.822 71.7805C130.669 71.6277 130.583 71.4203 130.583 71.2042C130.583 70.988 130.669 70.7806 130.822 70.6278C130.975 70.4749 131.183 70.389 131.4 70.389H148.332C148.549 70.389 148.757 70.4749 148.91 70.6278C149.063 70.7806 149.149 70.988 149.149 71.2042C149.149 71.4203 149.063 71.6277 148.91 71.7805C148.757 71.9334 148.549 72.0193 148.332 72.0193Z" fill="#6F6F8E"/>
<path d="M141.582 75.5431H131.4C131.183 75.5431 130.975 75.4572 130.822 75.3043C130.669 75.1515 130.583 74.9442 130.583 74.728C130.583 74.5118 130.669 74.3045 130.822 74.1516C130.975 73.9987 131.183 73.9128 131.4 73.9128H141.582C141.798 73.9128 142.006 73.9987 142.159 74.1516C142.313 74.3045 142.399 74.5118 142.399 74.728C142.399 74.9442 142.313 75.1515 142.159 75.3043C142.006 75.4572 141.798 75.5431 141.582 75.5431Z" fill="#6F6F8E"/>
<path d="M147.251 75.5431H144.561C144.344 75.5431 144.136 75.4572 143.983 75.3043C143.83 75.1515 143.744 74.9442 143.744 74.728C143.744 74.5118 143.83 74.3045 143.983 74.1516C144.136 73.9987 144.344 73.9128 144.561 73.9128H147.226C147.443 73.9128 147.65 73.9987 147.804 74.1516C147.957 74.3045 148.043 74.5118 148.043 74.728C148.043 74.9442 147.957 75.1515 147.804 75.3043C147.65 75.4572 147.443 75.5431 147.226 75.5431H147.251Z" fill="#6F6F8E"/>
<path d="M154.617 75.5431H150.997C150.78 75.5431 150.572 75.4572 150.419 75.3043C150.266 75.1515 150.18 74.9442 150.18 74.728C150.18 74.5118 150.266 74.3045 150.419 74.1516C150.572 73.9987 150.78 73.9128 150.997 73.9128H154.617C154.834 73.9128 155.042 73.9987 155.195 74.1516C155.348 74.3045 155.434 74.5118 155.434 74.728C155.434 74.9442 155.348 75.1515 155.195 75.3043C155.042 75.4572 154.834 75.5431 154.617 75.5431Z" fill="#6F6F8E"/>
<path d="M29.9178 48.7945C31.3271 48.7945 32.4696 47.6548 32.4696 46.2488C32.4696 44.8429 31.3271 43.7031 29.9178 43.7031C28.5085 43.7031 27.366 44.8429 27.366 46.2488C27.366 47.6548 28.5085 48.7945 29.9178 48.7945Z" fill="#FF5F57"/>
<path d="M37.8875 48.7945C39.2968 48.7945 40.4393 47.6548 40.4393 46.2488C40.4393 44.8429 39.2968 43.7031 37.8875 43.7031C36.4782 43.7031 35.3357 44.8429 35.3357 46.2488C35.3357 47.6548 36.4782 48.7945 37.8875 48.7945Z" fill="#FEBC2E"/>
<path d="M45.8699 48.7945C47.2793 48.7945 48.4217 47.6548 48.4217 46.2488C48.4217 44.8429 47.2793 43.7031 45.8699 43.7031C44.4606 43.7031 43.3181 44.8429 43.3181 46.2488C43.3181 47.6548 44.4606 48.7945 45.8699 48.7945Z" fill="#29C940"/>
<path d="M163.907 152.24H24.1229C22.0247 152.237 20.0136 151.403 18.5312 149.922C17.0487 148.44 16.2161 146.433 16.2161 144.34V45.2707C16.2161 43.1775 17.0487 41.1699 18.5312 39.6887C20.0136 38.2074 22.0247 37.3736 24.1229 37.3702H163.907C166.005 37.3736 168.016 38.2074 169.499 39.6887C170.981 41.1699 171.814 43.1775 171.814 45.2707V144.34C171.814 146.433 170.981 148.44 169.499 149.922C168.016 151.403 166.005 152.237 163.907 152.24ZM24.1229 40.4175C22.8315 40.4209 21.5942 40.935 20.6822 41.8471C19.7703 42.7592 19.2581 43.9949 19.2581 45.2832V144.352C19.2565 144.991 19.381 145.624 19.6246 146.215C19.8682 146.806 20.226 147.343 20.6778 147.796C21.1295 148.249 21.6663 148.609 22.2574 148.855C22.8485 149.101 23.4824 149.229 24.1229 149.23H163.907C165.198 149.227 166.436 148.713 167.348 147.801C168.26 146.889 168.772 145.653 168.772 144.365V45.2957C168.772 44.0075 168.26 42.7718 167.348 41.8596C166.436 40.9475 165.198 40.4334 163.907 40.4301L24.1229 40.4175Z" fill="#000201"/>
<path d="M52.482 55.1776H18.6296C18.3795 55.1776 18.1397 55.0785 17.9629 54.9021C17.7861 54.7257 17.6868 54.4865 17.6868 54.237C17.6868 53.9876 17.7861 53.7484 17.9629 53.572C18.1397 53.3956 18.3795 53.2965 18.6296 53.2965H52.482C52.732 53.2965 52.9718 53.3956 53.1486 53.572C53.3254 53.7484 53.4248 53.9876 53.4248 54.237C53.4248 54.4865 53.3254 54.7257 53.1486 54.9021C52.9718 55.0785 52.732 55.1776 52.482 55.1776Z" fill="#000201"/>
<path d="M169.136 55.1776H61.2184C60.9684 55.1776 60.7286 55.0785 60.5518 54.9021C60.375 54.7257 60.2756 54.4865 60.2756 54.237C60.2756 53.9876 60.375 53.7484 60.5518 53.572C60.7286 53.3956 60.9684 53.2965 61.2184 53.2965H169.136C169.386 53.2965 169.626 53.3956 169.803 53.572C169.98 53.7484 170.079 53.9876 170.079 54.237C170.079 54.4865 169.98 54.7257 169.803 54.9021C169.626 55.0785 169.386 55.1776 169.136 55.1776Z" fill="#000201"/>
<path opacity="0.45" d="M65.681 116.475H3.95971C2.39765 116.475 1.13135 117.738 1.13135 119.296V163.037C1.13135 164.596 2.39765 165.859 3.95971 165.859H65.681C67.243 165.859 68.5093 164.596 68.5093 163.037V119.296C68.5093 117.738 67.243 116.475 65.681 116.475Z" fill="white"/>
<path d="M67.9939 127.423H18.0764C17.7953 127.393 17.5351 127.261 17.346 127.051C17.1569 126.842 17.0522 126.57 17.0522 126.288C17.0522 126.006 17.1569 125.734 17.346 125.524C17.5351 125.315 17.7953 125.182 18.0764 125.153H67.9939C68.1534 125.136 68.3146 125.153 68.467 125.202C68.6195 125.252 68.7599 125.333 68.879 125.44C68.9982 125.547 69.0935 125.677 69.1587 125.824C69.2239 125.97 69.2576 126.128 69.2576 126.288C69.2576 126.448 69.2239 126.606 69.1587 126.752C69.0935 126.898 68.9982 127.029 68.879 127.136C68.7599 127.243 68.6195 127.324 68.467 127.373C68.3146 127.423 68.1534 127.439 67.9939 127.423Z" fill="#000201"/>
<path d="M6.52417 122.544C7.14899 122.544 7.65552 122.039 7.65552 121.416C7.65552 120.792 7.14899 120.287 6.52417 120.287C5.89934 120.287 5.39282 120.792 5.39282 121.416C5.39282 122.039 5.89934 122.544 6.52417 122.544Z" fill="#FF5F57"/>
<path d="M10.0439 122.544C10.6688 122.544 11.1753 122.039 11.1753 121.416C11.1753 120.792 10.6688 120.287 10.0439 120.287C9.41912 120.287 8.9126 120.792 8.9126 121.416C8.9126 122.039 9.41912 122.544 10.0439 122.544Z" fill="#FEBC2E"/>
<path d="M13.5635 122.544C14.1883 122.544 14.6948 122.039 14.6948 121.416C14.6948 120.792 14.1883 120.287 13.5635 120.287C12.9386 120.287 12.4321 120.792 12.4321 121.416C12.4321 122.039 12.9386 122.544 13.5635 122.544Z" fill="#29C940"/>
<path d="M55.8759 116.487L46.2721 165.859H37.083L46.7246 116.487H55.8759Z" fill="white"/>
<path d="M62.7519 116.487L53.1103 165.859H49.1506L58.8048 116.487H62.7519Z" fill="white"/>
<path d="M11.3136 127.423H1.53369C1.25259 127.393 0.992397 127.261 0.803283 127.051C0.614168 126.842 0.509521 126.57 0.509521 126.288C0.509521 126.006 0.614168 125.734 0.803283 125.524C0.992397 125.315 1.25259 125.182 1.53369 125.153H11.3136C11.473 125.136 11.6342 125.153 11.7867 125.202C11.9391 125.252 12.0795 125.333 12.1987 125.44C12.3178 125.547 12.4131 125.677 12.4783 125.824C12.5435 125.97 12.5772 126.128 12.5772 126.288C12.5772 126.448 12.5435 126.606 12.4783 126.752C12.4131 126.898 12.3178 127.029 12.1987 127.136C12.0795 127.243 11.9391 127.324 11.7867 127.373C11.6342 127.423 11.473 127.439 11.3136 127.423Z" fill="#000201"/>
<path d="M65.6935 167H3.95973C3.43808 166.998 2.92187 166.894 2.44056 166.694C1.95925 166.493 1.52227 166.2 1.15458 165.83C0.786886 165.461 0.495676 165.024 0.297576 164.542C0.0994763 164.061 -0.00163344 163.545 1.99547e-05 163.025V119.296C0.00666021 118.253 0.426773 117.255 1.16864 116.519C1.91052 115.784 2.91389 115.371 3.95973 115.371H65.6935C66.7427 115.375 67.7479 115.792 68.4898 116.532C69.2317 117.272 69.6499 118.275 69.6533 119.322V163.025C69.6549 163.545 69.5538 164.061 69.3557 164.542C69.1576 165.024 68.8664 165.461 68.4987 165.83C68.131 166.2 67.694 166.493 67.2127 166.694C66.7314 166.894 66.2152 166.998 65.6935 167ZM3.95973 117.616C3.51299 117.616 3.08454 117.793 2.76865 118.108C2.45275 118.423 2.27528 118.851 2.27528 119.296V163.025C2.27528 163.47 2.45275 163.898 2.76865 164.213C3.08454 164.528 3.51299 164.705 3.95973 164.705H65.6935C65.9147 164.705 66.1338 164.662 66.3382 164.577C66.5425 164.493 66.7282 164.369 66.8846 164.213C67.041 164.057 67.1651 163.872 67.2498 163.668C67.3344 163.464 67.378 163.245 67.378 163.025V119.296C67.378 119.076 67.3344 118.857 67.2498 118.653C67.1651 118.45 67.041 118.264 66.8846 118.108C66.7282 117.952 66.5425 117.828 66.3382 117.744C66.1338 117.66 65.9147 117.616 65.6935 117.616H3.95973Z" fill="#000201"/>
<path d="M176.389 55.5412C191.344 55.5412 203.466 43.4476 203.466 28.5293C203.466 13.611 191.344 1.51733 176.389 1.51733C161.435 1.51733 149.312 13.611 149.312 28.5293C149.312 43.4476 161.435 55.5412 176.389 55.5412Z" fill="white"/>
<path d="M176.39 57.0712C170.731 57.0712 165.199 55.3972 160.494 52.261C155.789 49.1248 152.122 44.6671 149.957 39.4518C147.791 34.2365 147.225 28.4976 148.329 22.9611C149.433 17.4245 152.158 12.3388 156.159 8.34716C160.16 4.35551 165.258 1.63716 170.808 0.535864C176.358 -0.565431 182.11 -0.000206454 187.338 2.16006C192.566 4.32033 197.035 7.97861 200.178 12.6723C203.322 17.366 205 22.8843 205 28.5293C204.993 36.097 201.977 43.3529 196.613 48.7041C191.249 54.0553 183.976 57.0645 176.39 57.0712ZM176.39 3.03475C171.332 3.03475 166.388 4.53103 162.183 7.33434C157.978 10.1377 154.701 14.1221 152.766 18.7836C150.831 23.4451 150.326 28.5744 151.313 33.5226C152.301 38.4709 154.737 43.0158 158.314 46.5825C161.891 50.1493 166.449 52.5776 171.409 53.5604C176.37 54.5431 181.511 54.0362 186.183 52.1037C190.855 50.1712 194.847 46.9 197.655 42.7037C200.463 38.5074 201.96 33.5747 201.958 28.5293C201.951 21.7676 199.255 15.2849 194.461 10.5048C189.667 5.72476 183.168 3.03807 176.39 3.03475Z" fill="#000201"/>
<path d="M157.42 30.8636V29.5L168.398 23.9091V26.0909L159.977 30.1477L160.045 30.0114V30.3523L159.977 30.2159L168.398 34.2727V36.4545L157.42 30.8636ZM178.832 18.7273L173.207 39.625H171.366L176.991 18.7273H178.832ZM192.773 30.8636L181.795 36.4545V34.2727L190.216 30.2159L190.148 30.3523V30.0114L190.216 30.1477L181.795 26.0909V23.9091L192.773 29.5V30.8636Z" fill="black"/>
</g>
<defs>
<clipPath id="clip0_21_542">
<rect width="205" height="167" fill="white"/>
</clipPath>
</defs>
</svg>
