<svg width="32" height="33" viewBox="0 0 32 33" fill="none" xmlns="http://www.w3.org/2000/svg">
<path d="M9.29202 31.197C8.29726 31.1092 7.29575 30.8628 6.34817 30.542C3.54932 29.5866 2.04535 27.5373 1.73175 24.6406C1.50919 22.5812 1.40128 20.5083 1.27651 18.4354C1.15174 16.3793 1 14.3233 1 12.2673C1 10.5185 1.20907 8.76965 1.90709 7.12886C2.69616 5.28214 4.06187 4.03635 5.91654 3.31389C7.40026 2.73657 8.96157 2.5475 10.5262 2.36519C13.5274 2.02083 16.5354 1.89591 19.55 2.0951C21.9206 2.2504 24.2777 2.53062 26.4696 3.51982C27.9398 4.18491 28.9819 5.29227 29.5012 6.85876C30.0812 8.60085 30.297 10.4003 30.4454 12.2166C30.6713 15.012 30.732 17.8108 30.6038 20.613C30.5162 22.4867 30.2127 24.3199 29.4674 26.0417C28.3007 28.7392 26.3853 30.6096 23.3875 31.0957C22.3422 31.2645 21.2732 31.3219 20.2143 31.3489C18.6429 31.3894 17.0682 31.3591 15.4934 31.3591L9.29202 31.197ZM16.3263 29.0363C18.5316 28.9384 20.4942 28.8709 22.4568 28.7527C23.9978 28.6616 25.2691 28.0032 26.2369 26.7743C27.5656 25.0863 28.0006 23.091 28.1287 21.0282C28.3378 17.6589 28.2332 14.2929 27.8589 10.9371C27.724 9.72507 27.5386 8.53331 26.8507 7.47997C26.6686 7.19974 26.5236 6.89252 26.355 6.60219C25.9166 5.84932 25.3467 5.17746 24.5003 4.94788C22.6254 4.43473 20.6932 4.18491 18.7542 4.18829C16.6028 4.19167 14.4446 4.23894 12.3033 4.41783C10.6881 4.55288 9.07959 4.86686 7.49469 5.21797C5.52875 5.65349 4.37886 6.99381 3.87643 8.90469C3.35372 10.8966 3.3571 12.9323 3.47852 14.9715C3.59653 16.9195 3.75163 18.8675 3.89665 20.8155C3.99107 22.0512 4.05516 23.2902 4.21026 24.5191C4.45303 26.3996 5.45121 27.723 7.30925 28.2598C8.19609 28.5164 9.11667 28.7426 10.0305 28.8C12.2055 28.9384 14.384 28.9688 16.3263 29.0363Z" fill="#222222"/>
<path d="M12.2903 23.0841C12.4589 22.4157 12.587 21.8519 12.7422 21.2982C13.7841 17.5507 14.8329 13.8033 15.8749 10.0524C15.9592 9.75533 16.0198 9.44811 16.1041 9.15098C16.2896 8.49603 16.9067 8.12806 17.4968 8.31037C18.1004 8.49603 18.3972 9.11723 18.205 9.77557C17.0348 13.783 15.8681 17.7904 14.6946 21.7944C14.5429 22.311 14.381 22.8275 14.1685 23.3205C13.8853 23.9822 13.1603 24.1949 12.6882 23.7594C12.4926 23.577 12.4016 23.28 12.2903 23.0841Z" fill="#222222"/>
<path d="M7.27547 15.9606C7.82173 16.4096 8.30395 16.8181 8.79966 17.2029C9.43701 17.6959 10.0946 18.1685 10.7353 18.658C11.1433 18.9686 11.3422 19.3839 11.204 19.8971C11.0286 20.5588 10.2497 20.92 9.64944 20.525C8.16572 19.5493 6.65837 18.5939 5.48151 17.2334C5.22858 16.9396 5.05998 16.5446 4.95209 16.1665C4.82729 15.7209 5.00939 15.3056 5.36684 15.0119C6.78989 13.8404 8.21965 12.6756 9.65957 11.5244C9.93943 11.3015 10.2699 11.1226 10.6004 10.9842C11.1264 10.7648 11.6424 10.9403 11.8616 11.3657C12.0808 11.7911 11.929 12.2266 11.4704 12.5912C10.0979 13.6918 8.72886 14.7958 7.27547 15.9606Z" fill="#222222"/>
<path d="M24.1395 15.9404C23.374 15.3665 22.6389 14.806 21.8936 14.2558C21.3406 13.8472 20.7707 13.4624 20.2312 13.0403C19.8232 12.723 19.7388 12.2098 19.9817 11.8114C20.2346 11.3996 20.7438 11.2578 21.226 11.4806C21.3845 11.5549 21.5295 11.6528 21.6711 11.7541C22.3152 12.22 22.9626 12.6791 23.5932 13.1619C24.3721 13.7595 25.1444 14.3671 25.9065 14.9884C26.5944 15.5488 26.6449 16.2375 25.9705 16.8081C24.2777 18.2429 22.5579 19.6507 20.8314 21.0417C20.2818 21.484 19.6141 21.3759 19.2668 20.8695C18.9296 20.3766 19.0746 19.7756 19.6343 19.357C21.0135 18.3273 22.3927 17.2942 23.7685 16.2611C23.8866 16.1767 23.9911 16.0721 24.1395 15.9404Z" fill="#222222"/>
</svg>
