<svg width="17" height="21" viewBox="0 0 17 21" fill="none" xmlns="http://www.w3.org/2000/svg">
<g id="icon-cv">
<path id="Vector" d="M6.70166 11.8332C6.67043 11.9152 6.62942 11.9861 6.57861 12.0453C6.52828 12.1054 6.46676 12.152 6.39405 12.1856C6.32134 12.2191 6.23232 12.2354 6.12838 12.2354C5.9825 12.2354 5.86179 12.2037 5.76485 12.1408C5.6679 12.077 5.59053 11.9935 5.53274 11.8887C5.47495 11.7847 5.433 11.6664 5.4069 11.5363C5.38033 11.4063 5.36775 11.2735 5.36775 11.1392C5.36775 11.0045 5.38033 10.8726 5.4069 10.7417C5.433 10.6107 5.47495 10.4932 5.53274 10.3893C5.59053 10.2844 5.6679 10.201 5.76485 10.1372C5.86179 10.0733 5.98297 10.0426 6.12838 10.0426C6.25469 10.0426 6.35863 10.0663 6.43879 10.1143C6.51896 10.1633 6.58328 10.2192 6.63175 10.2826C6.68022 10.3464 6.71378 10.4098 6.73242 10.4755C6.75106 10.5403 6.76411 10.5921 6.77157 10.6293H7.96845C7.91625 10.126 7.74008 9.73727 7.43946 9.46322C7.1393 9.18917 6.71331 9.04981 6.16194 9.04608C5.85247 9.04608 5.57329 9.09595 5.3258 9.19709C5.07785 9.2973 4.86532 9.43945 4.68821 9.62215C4.5111 9.80485 4.37501 10.0244 4.27993 10.2821C4.18485 10.5389 4.13684 10.8251 4.13684 11.1378C4.13684 11.4319 4.18205 11.7078 4.27107 11.9628C4.36056 12.2187 4.49246 12.4387 4.66584 12.6255C4.83922 12.8124 5.05035 12.9597 5.30017 13.0679C5.54998 13.1751 5.83709 13.23 6.16194 13.23C6.45277 13.23 6.71191 13.1811 6.93936 13.0846C7.16634 12.9872 7.35743 12.86 7.51217 12.7015C7.6669 12.5431 7.78435 12.3645 7.86452 12.1674C7.94468 11.9707 7.98523 11.7703 7.98523 11.5694H6.7767C6.75852 11.6626 6.73382 11.7517 6.70166 11.8332Z" fill="#222222"/>
<path id="Vector_2" d="M9.99312 11.5643H9.98194L9.32756 9.14255H8.08594L9.27723 13.1359H10.6531L11.9008 9.14255H10.6363L9.99312 11.5643Z" fill="#222222"/>
<path id="Vector_3" d="M13.1676 0H0V21H16.1724V2.91344L13.1676 0ZM14.7742 19.6013H1.39823V1.39823H12.447V3.61675H14.7737L14.7742 19.6013Z" fill="#222222"/>
</g>
</svg>
