<svg width="16" height="16" viewBox="0 0 16 16" fill="none" xmlns="http://www.w3.org/2000/svg">
<g id="icon-codepen">
<path id="Vector" fill-rule="evenodd" clip-rule="evenodd" d="M11.6129 8L8 10.4082V15.2257L15.2257 10.4082V5.59176L8 0.774261V5.59176L11.6129 8Z" stroke="#222222" stroke-width="1.5" stroke-linecap="round" stroke-linejoin="round"/>
<path id="Vector_2" d="M1.20367 4.94757C0.847891 4.71042 0.367236 4.80659 0.130077 5.16237C-0.107072 5.51815 -0.0109072 5.99878 0.344878 6.23599L1.20367 4.94757ZM7.57059 11.0525C7.9264 11.2896 8.40702 11.1934 8.64423 10.8376C8.88134 10.4818 8.78513 10.0012 8.42942 9.76401L7.57059 11.0525ZM1.54846 5.59177C1.54846 5.1642 1.20184 4.81758 0.774272 4.81758C0.346704 4.81758 8.60597e-05 5.1642 8.60597e-05 5.59177H1.54846ZM8.60597e-05 10.4082C8.60597e-05 10.8358 0.346704 11.1824 0.774272 11.1824C1.20184 11.1824 1.54846 10.8358 1.54846 10.4082H8.60597e-05ZM0.344805 4.94762C-0.0109383 5.1848 -0.107061 5.66548 0.130129 6.02118C0.367308 6.377 0.847984 6.4731 1.20374 6.23589L0.344805 4.94762ZM8.42942 1.41841C8.78524 1.18123 8.88134 0.700553 8.64413 0.3448C8.40692 -0.010944 7.9263 -0.107067 7.57059 0.130123L8.42942 1.41841ZM8.42942 6.23599C8.78513 5.99878 8.88134 5.51815 8.64423 5.16237C8.40702 4.80659 7.9264 4.71042 7.57059 4.94757L8.42942 6.23599ZM0.344878 9.76401C-0.0109072 10.0012 -0.107072 10.4818 0.130077 10.8376C0.367236 11.1934 0.847891 11.2896 1.20367 11.0525L0.344878 9.76401ZM1.20374 9.76411C0.847984 9.5269 0.367308 9.623 0.130129 9.97882C-0.107061 10.3345 -0.0109383 10.8151 0.344805 11.0524L1.20374 9.76411ZM7.57059 15.8699C7.9263 16.1071 8.40692 16.011 8.64413 15.6552C8.88134 15.2994 8.78524 14.8188 8.42942 14.5816L7.57059 15.8699ZM15.6552 6.23599C16.0109 5.99878 16.1071 5.51815 15.87 5.16237C15.6328 4.80659 15.1521 4.71042 14.7963 4.94757L15.6552 6.23599ZM11.6129 8L11.1835 7.35577C10.968 7.49936 10.8387 7.74111 10.8387 8C10.8387 8.25889 10.968 8.50064 11.1835 8.64423L11.6129 8ZM14.7963 11.0525C15.1521 11.2896 15.6328 11.1934 15.87 10.8376C16.1071 10.4818 16.0109 10.0012 15.6552 9.76401L14.7963 11.0525ZM0.344878 6.23599L7.57059 11.0525L8.42942 9.76401L1.20367 4.94757L0.344878 6.23599ZM8.60597e-05 5.59177V10.4082H1.54846V5.59177H8.60597e-05ZM1.20374 6.23589L8.42942 1.41841L7.57059 0.130123L0.344805 4.94762L1.20374 6.23589ZM7.57059 4.94757L0.344878 9.76401L1.20367 11.0525L8.42942 6.23599L7.57059 4.94757ZM0.344805 11.0524L7.57059 15.8699L8.42942 14.5816L1.20374 9.76411L0.344805 11.0524ZM14.7963 4.94757L11.1835 7.35577L12.0423 8.64423L15.6552 6.23599L14.7963 4.94757ZM11.1835 8.64423L14.7963 11.0525L15.6552 9.76401L12.0423 7.35577L11.1835 8.64423Z" fill="#222222"/>
</g>
</svg>
