<svg width="32" height="33" viewBox="0 0 32 33" fill="none" xmlns="http://www.w3.org/2000/svg">
<path d="M31.9949 19.3925C31.9979 18.7345 31.8944 16.252 31.8154 15.542C30.9054 7.39349 24.2919 1.47949 16.0909 1.47949C7.54888 1.47949 0.627914 8.06149 0.158383 16.789C0.148383 16.9795 0.0783828 18.331 0.0733828 19.1355L0.0708828 19.583C0.0298828 19.768 0.00488281 19.959 0.00488281 20.156L0.00488281 28.864C0.00488281 30.329 1.19638 31.5205 2.66138 31.5205H5.35788C6.82288 31.5205 8.01485 30.329 8.01485 28.864V20.1565C8.01485 18.6915 6.82235 17.5 5.35785 17.5H2.66035C2.47997 17.5 2.30006 17.5183 2.12335 17.5545C2.13835 17.23 2.15185 16.9735 2.15535 16.8965C2.56738 9.24702 8.62835 3.47952 16.0909 3.47952C23.2559 3.47952 29.0324 8.64652 29.8274 15.7645C29.8614 16.0615 29.9044 16.8165 29.9389 17.5745C29.7439 17.5295 29.5449 17.5 29.3379 17.5H26.6729C25.2079 17.5 24.0164 18.6915 24.0164 20.1565V28.8335C24.0164 30.2989 25.2079 31.4899 26.6729 31.4899H29.3379C30.8029 31.4899 31.9949 30.2985 31.9949 28.8335V20.1565C31.9949 19.9935 31.9749 19.835 31.9459 19.681C31.9749 19.589 31.9939 19.493 31.9949 19.3925V19.3925ZM2.66038 19.5H5.35688C5.71938 19.5 6.01385 19.794 6.01385 20.1565V28.8645C6.01385 29.2275 5.71885 29.521 5.35685 29.521H2.66035C2.29785 29.521 2.00385 29.227 2.00385 28.8645V20.1565C2.00485 19.794 2.29885 19.5 2.66038 19.5ZM29.9949 28.833C29.9949 29.1955 29.6999 29.4895 29.3379 29.4895H26.6729C26.3104 29.4895 26.0164 29.1955 26.0164 28.833V20.1565C26.0164 19.794 26.3104 19.5 26.6729 19.5H29.3379C29.7004 19.5 29.9949 19.794 29.9949 20.1565V28.833Z" fill="#252027"/>
</svg>
