<svg width="32" height="32" viewBox="0 0 32 32" fill="none" xmlns="http://www.w3.org/2000/svg">
<path d="M11.3333 14.6666V18.6666M9.33325 16.6666H13.3333" stroke="#252027" stroke-width="1.5" stroke-linecap="round"/>
<path d="M3.49703 20.158L2.7738 23.1688C2.26534 25.2858 3.61695 27.4027 5.79227 27.8967C7.6267 28.3132 9.51368 27.4419 10.3423 25.7955L10.5129 25.4564C11.2737 23.9448 12.8524 22.9866 14.5819 22.9866H17.4182C19.1478 22.9866 20.7265 23.9448 21.4873 25.4564L21.6579 25.7955C22.4865 27.4419 24.3734 28.3132 26.2079 27.8967C28.3831 27.4027 29.7349 25.2858 29.2263 23.1688L27.7799 17.1471C26.9623 13.7432 26.5534 12.0412 25.3938 10.925C25.1002 10.6425 24.7759 10.3921 24.4265 10.1783C23.0455 9.33337 21.2495 9.33337 17.6577 9.33337H14.3425C10.7506 9.33337 8.95459 9.33337 7.57374 10.1783C7.22427 10.3921 6.8999 10.6425 6.6064 10.925C5.77095 11.7291 5.3252 12.8373 4.83555 14.6667" stroke="#252027" stroke-width="1.5" stroke-linecap="round"/>
<path d="M16 9.33333V8C16 7.26363 16.5969 6.66667 17.3333 6.66667H18.6667C19.4031 6.66667 20 6.06971 20 5.33333V4" stroke="#252027" stroke-width="1.5" stroke-linecap="round"/>
<path d="M21.3334 14.6667C21.3334 15.4031 20.7365 16 20.0001 16C19.2637 16 18.6667 15.4031 18.6667 14.6667C18.6667 13.9303 19.2637 13.3334 20.0001 13.3334C20.7365 13.3334 21.3334 13.9303 21.3334 14.6667Z" fill="#252027"/>
<path d="M23.9999 18.6667C23.9999 19.4031 23.403 20 22.6666 20C21.9302 20 21.3333 19.4031 21.3333 18.6667C21.3333 17.9303 21.9302 17.3334 22.6666 17.3334C23.403 17.3334 23.9999 17.9303 23.9999 18.6667Z" fill="#252027"/>
</svg>
