<svg width="35" height="36" viewBox="0 0 35 36" fill="none" xmlns="http://www.w3.org/2000/svg">
<g id="icon-puzzle">
<g id="Group">
<path id="Vector" d="M20.4215 1.125C20.3761 1.12507 20.3324 1.14315 20.3003 1.17529C20.2682 1.20742 20.2501 1.25099 20.25 1.29643V6.20723C20.25 6.23247 20.2556 6.2574 20.2663 6.28024C20.277 6.30308 20.2927 6.32327 20.3122 6.33936C20.3316 6.35545 20.3544 6.36704 20.3788 6.37332C20.4033 6.37959 20.4288 6.38039 20.4536 6.37566C20.8797 6.29415 21.253 6.24923 21.5048 6.24923C22.586 6.24923 23.4657 7.12894 23.4657 8.21017C23.4657 9.2914 22.586 10.171 21.5048 10.171C21.252 10.171 20.8786 10.1263 20.4536 10.045C20.4288 10.0403 20.4033 10.0411 20.3788 10.0474C20.3544 10.0536 20.3316 10.0652 20.3122 10.0813C20.2927 10.0974 20.277 10.1176 20.2663 10.1404C20.2556 10.1633 20.25 10.1882 20.25 10.2135V15.1243C20.25 15.1697 20.2681 15.2133 20.3002 15.2455C20.3324 15.2776 20.376 15.2957 20.4214 15.2957H25.117C25.055 15.6585 25.0215 15.9773 25.0215 16.2077C25.0215 17.4779 26.0549 18.5114 27.3252 18.5114C28.5956 18.5114 29.629 17.4779 29.629 16.2077C29.629 15.9764 29.5955 15.6577 29.5337 15.2957H34.2393C34.2848 15.2957 34.3284 15.2776 34.3605 15.2455C34.3927 15.2133 34.4107 15.1697 34.4107 15.1243C34.4107 7.41001 28.1352 1.13006 20.4215 1.125Z" fill="#FFC638"/>
<path id="Vector_2" d="M20.4215 1.125C20.3761 1.12507 20.3324 1.14315 20.3003 1.17529C20.2682 1.20742 20.2501 1.25099 20.25 1.29643V6.20723C20.25 6.23247 20.2556 6.2574 20.2663 6.28024C20.277 6.30308 20.2927 6.32327 20.3122 6.33936C20.3316 6.35545 20.3544 6.36704 20.3788 6.37332C20.4033 6.37959 20.4288 6.3804 20.4536 6.37566C20.8797 6.29415 21.253 6.24923 21.5048 6.24923C22.586 6.24923 23.4657 7.12894 23.4657 8.21017C23.4657 9.2914 22.586 10.171 21.5048 10.171C21.252 10.171 20.8786 10.1263 20.4536 10.045C20.4288 10.0403 20.4033 10.0411 20.3788 10.0474C20.3544 10.0536 20.3316 10.0652 20.3122 10.0813C20.2927 10.0974 20.277 10.1176 20.2663 10.1404C20.2556 10.1633 20.25 10.1882 20.25 10.2135V15.1243C20.25 15.1697 20.2681 15.2133 20.3002 15.2455C20.3324 15.2776 20.376 15.2957 20.4214 15.2957H25.117C25.055 15.6585 25.0215 15.9773 25.0215 16.2077C25.0215 17.4779 26.0549 18.5114 27.3252 18.5114C28.5956 18.5114 29.629 17.4779 29.629 16.2077C29.629 15.9764 29.5955 15.6577 29.5337 15.2957H34.2393C34.2848 15.2957 34.3284 15.2776 34.3605 15.2455C34.3927 15.2133 34.4107 15.1697 34.4107 15.1243C34.4107 7.41001 28.1352 1.13006 20.4215 1.125Z" stroke="#0A0B1F" stroke-linecap="round" stroke-linejoin="round"/>
</g>
<g id="Group_2">
<path id="Vector_3" d="M29.2495 20.9416C29.1801 28.6493 22.9116 34.8749 15.1877 34.8749C7.42089 34.8749 1.125 28.579 1.125 20.8122C1.125 13.0908 7.34718 6.82323 15.0514 6.75037V11.8325C15.0515 11.8578 15.0571 11.8827 15.0679 11.9055C15.0787 11.9283 15.0944 11.9485 15.1139 11.9645C15.1334 11.9805 15.1561 11.9921 15.1806 11.9983C15.2051 12.0045 15.2306 12.0053 15.2554 12.0005C15.6814 11.9191 16.0551 11.8745 16.3063 11.8745C17.388 11.8745 18.2675 12.754 18.2675 13.8349C18.2675 14.9166 17.388 15.7961 16.3063 15.7961C16.0534 15.7961 15.6806 15.7515 15.2554 15.67C15.2306 15.6653 15.2051 15.666 15.1806 15.6722C15.1561 15.6785 15.1334 15.69 15.1139 15.7061C15.0944 15.7221 15.0787 15.7423 15.0679 15.7651C15.0571 15.7879 15.0515 15.8128 15.0514 15.8381V20.7488C15.0514 20.7942 15.0695 20.8378 15.1016 20.87C15.1338 20.9021 15.1774 20.9202 15.2228 20.9202H19.9184C19.8567 21.2836 19.8232 21.6025 19.8232 21.8322C19.8232 23.1025 20.857 24.1363 22.1273 24.1363C23.3976 24.1363 24.4305 23.1025 24.4305 21.8322C24.4305 21.6008 24.3971 21.2828 24.3354 20.9202H28.7824L29.2495 20.9416Z" fill="#EBE6EE"/>
<path id="Vector_4" d="M14.0689 25.8285C14.3218 25.8285 14.6951 25.8733 15.1201 25.9546C15.1449 25.9593 15.1704 25.9585 15.1949 25.9523C15.2194 25.946 15.2421 25.9344 15.2616 25.9183C15.281 25.9022 15.2967 25.882 15.3075 25.8592C15.3182 25.8363 15.3238 25.8114 15.3238 25.7861V20.8753C15.3238 20.8298 15.3057 20.7862 15.2735 20.754C15.2414 20.7219 15.1978 20.7038 15.1523 20.7038H10.4567C10.5187 20.3411 10.5523 20.0224 10.5523 19.7919C10.5523 18.5216 9.51876 17.4882 8.24844 17.4882C6.97812 17.4882 5.94472 18.5216 5.94472 19.7919C5.94472 20.0232 5.97815 20.3418 6.03987 20.7038H1.33428C1.28881 20.7038 1.2452 20.7219 1.21305 20.754C1.1809 20.7862 1.16284 20.8298 1.16284 20.8753C1.16284 28.5894 7.43842 34.8694 15.1522 34.8746H15.1523C15.1978 34.8745 15.2414 34.8565 15.2735 34.8243C15.3056 34.7922 15.3237 34.7486 15.3238 34.7032V29.7923C15.3238 29.767 15.3182 29.7421 15.3074 29.7193C15.2967 29.6964 15.281 29.6763 15.2615 29.6602C15.2421 29.6441 15.2193 29.6325 15.1949 29.6262C15.1704 29.62 15.1449 29.6192 15.1201 29.6239C14.694 29.7054 14.3207 29.7503 14.0689 29.7503C12.9876 29.7503 12.1079 28.8706 12.1079 27.7893C12.1079 26.7081 12.9876 25.8285 14.0689 25.8285Z" fill="#4AB3FC"/>
<g id="Vector_5" style="mix-blend-mode:multiply" opacity="0.5">
<path d="M3.51172 19.505C3.51172 19.9139 3.52886 20.3185 3.564 20.7179H1.12622C1.16394 14.9518 4.67318 10.0093 9.66789 7.87585C5.95207 10.4062 3.51172 14.6706 3.51172 19.505Z" fill="#EBE6EE"/>
</g>
<g id="Vector_6" style="mix-blend-mode:multiply" opacity="0.5">
<path d="M15.324 33.3887V34.8741C15.2785 34.875 15.2331 34.875 15.1877 34.875C7.42089 34.875 1.125 28.5791 1.125 20.8123C1.125 20.7806 1.125 20.7497 1.12586 20.718H3.56364C4.11394 27.1673 9.01779 32.3746 15.324 33.3887Z" fill="#4AB3FC"/>
</g>
<g id="Vector_7" style="mix-blend-mode:multiply" opacity="0.5">
<path d="M23.0951 32.4423C20.8767 33.9526 18.2032 34.8466 15.324 34.874V33.3886C16.0569 33.5069 16.8086 33.5677 17.574 33.5677C19.5335 33.5677 21.3996 33.1666 23.0951 32.4423Z" fill="#EBE6EE"/>
</g>
<path id="Vector_8" d="M29.2496 20.9417H28.7825V20.9203L29.2496 20.9417ZM14.0689 25.8285C14.3218 25.8285 14.6951 25.8733 15.1201 25.9546C15.1449 25.9593 15.1704 25.9585 15.1949 25.9523C15.2194 25.946 15.2421 25.9344 15.2616 25.9183C15.281 25.9022 15.2967 25.882 15.3074 25.8592C15.3182 25.8363 15.3238 25.8114 15.3238 25.7861V20.8753C15.3238 20.8298 15.3057 20.7862 15.2735 20.754C15.2414 20.7219 15.1978 20.7038 15.1523 20.7038H10.4567C10.5186 20.3411 10.5522 20.0224 10.5522 19.7919C10.5522 18.5216 9.51876 17.4882 8.24844 17.4882C6.97812 17.4882 5.94472 18.5216 5.94472 19.7919C5.94472 20.0232 5.97815 20.3418 6.03987 20.7038H1.33428C1.28881 20.7038 1.2452 20.7219 1.21305 20.754C1.1809 20.7862 1.16284 20.8298 1.16284 20.8753C1.16284 28.5894 7.43842 34.8694 15.1522 34.8746H15.1523C15.1978 34.8745 15.2414 34.8565 15.2735 34.8243C15.3056 34.7922 15.3237 34.7486 15.3238 34.7032V29.7923C15.3238 29.767 15.3182 29.7421 15.3074 29.7193C15.2967 29.6964 15.281 29.6763 15.2615 29.6602C15.2421 29.6441 15.2193 29.6325 15.1949 29.6262C15.1704 29.62 15.1449 29.6192 15.1201 29.6239C14.694 29.7054 14.3207 29.7503 14.0689 29.7503C12.9876 29.7503 12.1079 28.8706 12.1079 27.7893C12.1079 26.7081 12.9876 25.8285 14.0689 25.8285Z" fill="#4AB3FC"/>
<g id="Vector_9" style="mix-blend-mode:multiply" opacity="0.5">
<path d="M3.51172 19.505C3.51172 19.9139 3.52886 20.3185 3.564 20.7179H1.12622C1.16394 14.9518 4.67318 10.0093 9.66789 7.87585C5.95207 10.4062 3.51172 14.6706 3.51172 19.505Z" fill="#EBE6EE"/>
</g>
<g id="Vector_10" style="mix-blend-mode:multiply" opacity="0.5">
<path d="M15.324 33.3887V34.8741C15.2785 34.875 15.2331 34.875 15.1877 34.875C7.42089 34.875 1.125 28.5791 1.125 20.8123C1.125 20.7806 1.125 20.7497 1.12586 20.718H3.56364C4.11394 27.1673 9.01779 32.3746 15.324 33.3887Z" fill="#4AB3FC"/>
</g>
<path id="Vector_11" d="M29.2495 20.9416C29.1801 28.6493 22.9116 34.8749 15.1877 34.8749C7.42089 34.8749 1.125 28.579 1.125 20.8122C1.125 13.0908 7.34718 6.82323 15.0514 6.75037V11.8325C15.0515 11.8578 15.0571 11.8827 15.0679 11.9055C15.0787 11.9283 15.0944 11.9485 15.1139 11.9645C15.1334 11.9805 15.1562 11.9921 15.1806 11.9983C15.2051 12.0045 15.2306 12.0053 15.2554 12.0005C15.6814 11.9191 16.0551 11.8745 16.3063 11.8745C17.388 11.8745 18.2675 12.754 18.2675 13.8349C18.2675 14.9166 17.388 15.7961 16.3063 15.7961C16.0534 15.7961 15.6806 15.7515 15.2554 15.67C15.2306 15.6653 15.2051 15.666 15.1806 15.6722C15.1562 15.6785 15.1334 15.69 15.1139 15.7061C15.0944 15.7221 15.0787 15.7423 15.0679 15.7651C15.0571 15.7879 15.0515 15.8128 15.0514 15.8381V20.7488C15.0514 20.7942 15.0695 20.8378 15.1016 20.87C15.1338 20.9021 15.1774 20.9202 15.2228 20.9202H19.9184C19.8567 21.2836 19.8232 21.6025 19.8232 21.8322C19.8232 23.1025 20.857 24.1363 22.1273 24.1363C23.3976 24.1363 24.4305 23.1025 24.4305 21.8322C24.4305 21.6008 24.3971 21.2828 24.3354 20.9202H28.7824M29.2495 20.9416L28.7824 20.9202M29.2495 20.9416H28.7824V20.9202M15.324 33.3885V32.2211M14.0687 25.8284C14.3217 25.8284 14.6951 25.8733 15.1201 25.9545C15.1448 25.9592 15.1704 25.9584 15.1948 25.9522C15.2193 25.9459 15.242 25.9343 15.2615 25.9182C15.2809 25.9021 15.2966 25.8819 15.3073 25.8591C15.3181 25.8362 15.3236 25.8113 15.3236 25.7861V20.8752C15.3236 20.8297 15.3056 20.7861 15.2734 20.754C15.2413 20.7218 15.1977 20.7038 15.1522 20.7038H10.4565C10.5185 20.341 10.5521 20.0223 10.5521 19.7918C10.5521 18.5216 9.51872 17.4881 8.2484 17.4881C6.97808 17.4881 5.94459 18.5216 5.94459 19.7918C5.94459 20.0232 5.97811 20.3418 6.03982 20.7038H1.33423C1.28877 20.7038 1.24516 20.7218 1.21301 20.754C1.18086 20.7861 1.1628 20.8297 1.1628 20.8752C1.1628 28.5894 7.43838 34.8695 15.1521 34.8746C15.1976 34.8746 15.2412 34.8565 15.2733 34.8243C15.3055 34.7922 15.3236 34.7486 15.3236 34.7032V29.7923C15.3236 29.7671 15.3181 29.7421 15.3073 29.7193C15.2966 29.6965 15.2809 29.6763 15.2615 29.6602C15.242 29.6441 15.2193 29.6325 15.1948 29.6262C15.1704 29.6199 15.1448 29.6191 15.1201 29.6239C14.694 29.7054 14.3206 29.7502 14.0687 29.7502C12.9875 29.7502 12.1079 28.8705 12.1079 27.7893C12.1079 26.708 12.9875 25.8284 14.0687 25.8284Z" stroke="#0A0B1F" stroke-linecap="round" stroke-linejoin="round"/>
</g>
</g>
</svg>
