<svg width="89" height="89" viewBox="0 0 89 89" fill="none" xmlns="http://www.w3.org/2000/svg">
<g clip-path="url(#clip0_430_267)">
<path d="M25.415 65.6716H26.165V64.9216V49.9582C27.0594 50.0572 28.0855 50.0914 29.1545 50.0914C34.6814 50.0914 39.7051 48.6334 42.9524 45.3913C45.4987 42.9748 46.794 39.4588 46.7942 35.3187C46.7942 31.1843 45.086 27.6644 42.4104 25.4558C39.5399 23.0536 35.223 21.8546 29.5283 21.8546C24.3215 21.8546 20.4736 22.2313 17.6781 22.7394L17.0623 22.8514V23.4773V64.9216V65.6716H17.8123H25.415ZM48.433 63.2307L48.2804 63.7968L48.7929 64.0816C51.1646 65.3994 54.5967 66.2954 58.3809 66.2954C62.517 66.2954 65.7863 65.2697 68.0373 63.4486C70.3041 61.6148 71.4706 59.0267 71.4708 56.0725L71.4706 56.0621C71.4373 53.663 70.731 51.6608 69.2656 49.9983C67.8178 48.3558 65.6779 47.1005 62.8751 46.0814L62.8696 46.0794C60.9325 45.3922 59.7139 44.8486 58.978 44.283C58.6233 44.0103 58.4061 43.7507 58.2733 43.491C58.1418 43.2339 58.0712 42.9342 58.0712 42.5479C58.0712 41.8324 58.3477 41.2602 58.874 40.8483C59.4196 40.4214 60.2979 40.1196 61.5591 40.1196C64.0691 40.1196 66.3712 41.0603 67.6064 41.7658L68.4447 42.2446L68.7014 41.314L70.197 35.8919L70.3564 35.3142L69.8281 35.0313C67.969 34.0356 64.9174 33.1354 61.4346 33.1354C57.7667 33.1354 54.7161 34.2239 52.5703 36.0752C50.4205 37.9299 49.2194 40.5184 49.2176 43.414C49.1506 47.4248 52.0016 50.8698 58.0714 52.9786C59.9328 53.63 61.0572 54.1837 61.7185 54.7656C62.3198 55.2948 62.5546 55.8606 62.5546 56.6952C62.5546 57.4839 62.2708 58.0901 61.6877 58.5246C61.0723 58.9832 60.04 59.311 58.4432 59.311C55.8551 59.311 52.6848 58.2358 51.042 57.2383L50.1886 56.7201L49.9286 57.6841L48.433 63.2307ZM14.9405 0.83606H73.5923C81.2428 0.83606 87.5053 7.09861 87.5055 14.7491V73.401C87.5055 81.0515 81.2429 87.3141 73.5925 87.3141H14.9405C7.29002 87.3141 1.02747 81.0515 1.02747 73.401V14.7491C1.02747 7.09861 7.29002 0.83606 14.9405 0.83606ZM37.6282 35.6301C37.6282 37.9006 36.832 39.6081 35.4379 40.763C34.0245 41.9339 31.9089 42.6082 29.1545 42.6082C27.9166 42.6082 26.9329 42.5672 26.165 42.4399V29.4567C26.9783 29.3261 28.2113 29.2133 29.8404 29.2133C32.3834 29.2133 34.3265 29.8128 35.6203 30.8739C36.8919 31.9169 37.6282 33.4806 37.6282 35.6301Z" fill="#001E36" stroke="#222222" stroke-width="1.5"/>
</g>
<defs>
<clipPath id="clip0_430_267">
<rect width="88.15" height="88.15" fill="white" transform="translate(0.191406)"/>
</clipPath>
</defs>
</svg>
