<svg width="89" height="90" viewBox="0 0 89 90" fill="none" xmlns="http://www.w3.org/2000/svg">
<g clip-path="url(#clip0_430_247)">
<path d="M88.9753 86.9312L87.1866 85.2167C86.3028 84.0442 85.3627 83.0063 84.338 82.0604L84.3204 82.0463C83.2688 81.0851 82.1761 80.1712 81.0423 79.3044C80.1338 78.6763 78.885 77.9194 77.2958 77.0338C75.9894 76.4422 74.9683 75.4043 74.4155 74.1148L74.4014 74.0794L74.2324 73.9944C74.9789 73.92 75.662 73.7818 76.3169 73.587L76.2359 73.6083L78.243 73.0521C79.0739 72.79 80.0352 72.6199 81.0317 72.581H81.0528C82.1021 72.5384 83.0915 72.3684 84.0352 72.0886L83.9472 72.1098C84.4026 71.9965 84.8709 71.8678 85.3521 71.7237C85.8333 71.5796 86.2453 71.4509 86.588 71.3376V70.7389C86.2477 70.2264 85.8357 69.6408 85.3521 68.9819C84.8908 68.3513 84.3732 67.8023 83.7923 67.324L83.7746 67.3099C82.2981 65.9968 80.7688 64.7263 79.1866 63.4982C77.7923 62.4036 76.2113 61.2878 74.5704 60.2534L74.331 60.1117C73.4648 59.5378 72.4718 59.0065 71.4261 58.5707L71.3063 58.5282C70.2547 58.0984 69.2183 57.6273 68.1972 57.1148C67.8556 56.9448 67.4577 56.796 67.0458 56.6933L67.007 56.6862C66.5951 56.6012 66.243 56.3886 65.9859 56.0875L65.9824 56.084C65.4965 55.4393 65.0704 54.706 64.7324 53.9267L64.7042 53.8558C64.3638 53.0552 63.9953 52.2865 63.5986 51.5497C62.7465 49.8919 61.9225 48.2068 61.1268 46.4947C60.331 44.7825 59.5669 43.068 58.8345 41.3511C58.3251 40.2081 57.8568 39.0663 57.4296 37.9256C56.9577 36.6716 56.4261 35.5982 55.8063 34.5887L55.8521 34.6701C54.331 32.0629 52.8134 29.8383 51.1655 27.7235L51.2641 27.8581C49.6338 25.7893 47.9437 23.9402 46.1268 22.2257L46.0986 22.2009C44.3063 20.5076 42.3768 18.8923 40.3521 17.3974L40.1796 17.2734C38.0763 15.736 35.7758 14.2222 33.2782 12.732C32.2746 12.1369 31.1092 11.6516 29.8803 11.3399L29.7887 11.3186L25.8697 10.3338L23.6549 10.1638C22.9178 10.1071 22.1796 10.0788 21.4401 10.0788C20.919 9.80246 20.4718 9.47301 20.0775 9.09044C19.6901 8.71848 19.2711 8.36778 18.8345 8.04543L18.7993 8.02063C16.669 6.77016 14.1937 5.62596 11.6056 4.72619L11.3063 4.63409C10.6268 4.2338 9.80986 4 8.94014 4C8.32042 4 7.72535 4.12044 7.1831 4.33653L7.21479 4.3259C5.87676 4.8608 4.85563 5.94832 4.41549 7.30152L4.40493 7.33695C4.14789 7.94624 4 8.65118 4 9.39508C4 10.6987 4.45775 11.8925 5.22183 12.8241L5.21479 12.8135C6.49178 14.5257 7.47066 15.8718 8.15141 16.8518C8.6608 17.5391 9.18662 18.2535 9.72887 18.995C10.2254 19.661 10.6655 20.4226 11.0211 21.2267L11.0493 21.3011C11.2465 21.7227 11.419 22.2257 11.5458 22.7429L11.5563 22.7995C11.669 23.286 11.811 23.815 11.9824 24.3865C12.4918 25.6996 12.9742 27.0457 13.4296 28.4249C13.9261 29.9304 14.4754 31.2057 15.1127 32.4207L15.0458 32.279C15.3861 32.9072 15.7277 33.5212 16.0704 34.1211C16.4131 34.7209 16.7817 35.3066 17.1761 35.8781C17.4049 36.2253 17.6937 36.5122 18.0246 36.7354L18.0352 36.7424C18.3838 36.9975 18.6127 37.3978 18.6303 37.8512C18.2289 38.4463 17.9577 39.1619 17.8662 39.9306L17.8627 39.9519C17.7394 40.8481 17.5634 41.6451 17.3239 42.4138L17.3521 42.3076C16.5669 44.6668 16.1162 47.3874 16.1162 50.2107C16.1162 51.1246 16.162 52.0244 16.257 52.9135L16.2465 52.8037C16.4577 56.1973 17.4754 59.3147 19.1056 62.014L19.0563 61.9254C19.75 62.9704 20.493 63.8808 21.3134 64.7133C21.9049 65.3792 22.7641 65.7972 23.7218 65.7972C24.257 65.7972 24.7641 65.6662 25.2077 65.4324L25.1901 65.4395C26.4225 64.9931 27.2993 63.8596 27.3627 62.5099V62.5028C27.5317 60.8237 27.7852 59.3217 28.1338 57.8552L28.088 58.0925C28.1725 57.8693 28.2218 57.6143 28.2218 57.3451C28.2218 57.2919 28.2183 57.2388 28.2148 57.1857V57.1927C28.1866 56.9353 28.3427 56.6921 28.6831 56.463V56.633C29.0235 57.4336 29.3779 58.233 29.7465 59.0313C30.115 59.8295 30.4977 60.6289 30.8944 61.4295C31.9331 63.02 33.0352 64.4086 34.2465 65.6874L34.2359 65.6768C35.4507 66.9946 36.7746 68.1777 38.2042 69.2228L38.2817 69.2759C39.0282 69.8498 39.6831 70.4697 40.2746 71.1463L40.2887 71.1604C40.8451 71.8193 41.5106 72.3613 42.2606 72.7687L42.2958 72.7864V72.7014H42.4648C42.3275 72.3932 42.1056 72.1452 41.831 71.9752L41.8239 71.9717C41.5458 71.8158 41.3063 71.6599 41.081 71.4899L41.0986 71.5005C40.5892 70.9881 40.0634 70.4165 39.5211 69.786C38.9789 69.1555 38.4824 68.5556 38.0317 67.9865C36.8392 66.3286 35.7019 64.5964 34.6197 62.7897C33.5376 60.9831 32.5153 59.147 31.5528 57.2813C31.0974 56.3674 30.6573 55.4251 30.2324 54.4545C29.8075 53.4839 29.3955 52.5416 28.9965 51.6276C28.8239 51.2769 28.7042 50.8731 28.6585 50.4445V50.4268C28.6373 50.0194 28.4049 49.6687 28.0669 49.488L28.0599 49.4845C27.6338 50.2142 27.162 50.8448 26.6232 51.4151L26.6268 51.4115C26.0669 52.0031 25.6092 52.701 25.2817 53.4661L25.2641 53.5122C24.7676 54.7237 24.4049 56.13 24.2465 57.6001L24.2394 57.6674C24.0704 59.1812 23.9002 60.7375 23.7289 62.3363L23.5599 62.4213L23.4754 62.5064C22.5599 62.3186 21.8063 61.7306 21.3979 60.9371L21.3908 60.9194C20.9636 60.0904 20.581 59.2757 20.243 58.4751C19.3697 56.2186 18.8275 53.6078 18.7535 50.8802V50.8483C18.7218 50.4161 18.7077 49.9096 18.7077 49.403C18.7077 47.0438 19.0775 44.7695 19.7606 42.637L19.7183 42.7929C19.8873 42.1647 20.2559 41.1067 20.8239 39.6189C21.392 38.1311 21.5059 37.1026 21.1655 36.5334C20.9894 35.9489 20.662 35.4566 20.2324 35.0811L20.2289 35.0775C19.7993 34.702 19.4085 34.3088 19.0493 33.8908L19.0387 33.8766C18.642 33.3004 18.2594 32.6864 17.8908 32.0346C17.5223 31.3828 17.196 30.7404 16.912 30.1075C16.331 28.7543 15.7359 27.0575 15.243 25.3146L15.1655 24.9994C14.6056 22.9979 13.9824 21.3046 13.243 19.6751L13.3345 19.9019C12.9437 19.0092 12.4894 18.2369 11.9613 17.532L11.9824 17.5603C11.4096 16.7904 10.8979 16.0619 10.4472 15.3747C9.87441 14.6331 9.30634 13.9187 8.74296 13.2315C8.16901 12.5337 7.65845 11.7472 7.24296 10.9041L7.21127 10.8333C7.04225 10.4897 6.89437 10.0894 6.79225 9.67493L6.78521 9.63597C6.74648 9.51198 6.72535 9.36674 6.72535 9.2215C6.72535 8.93103 6.80986 8.65826 6.95775 8.43155L6.95423 8.43863C6.99296 8.24026 7.08451 8.06668 7.21127 7.92498C7.34859 7.801 7.52465 7.7089 7.71479 7.66993H7.72183C8.02113 7.4751 8.3838 7.3582 8.77817 7.3582C9.07394 7.3582 9.35915 7.42551 9.60915 7.54595L9.59859 7.5424C10.3697 7.76203 10.993 7.98166 11.6021 8.23317L11.4754 8.18712C12.5528 8.64527 13.5469 9.08807 14.4577 9.51552C15.507 10.0185 16.4014 10.5499 17.2465 11.1415L17.1831 11.099C17.6385 11.3847 18.0927 11.6988 18.5458 12.0413C18.9988 12.3837 19.4812 12.7273 19.993 13.0721H21.1866C22.0951 13.0721 23.0599 13.1158 24.081 13.2032C25.1127 13.2846 26.0669 13.4795 26.9754 13.7841L26.8908 13.7593C28.5845 14.2659 30.0387 14.8646 31.419 15.5837L31.2746 15.5164C32.6667 16.2296 33.9871 16.9865 35.2359 17.787C37.3099 19.0871 39.1021 20.419 40.7887 21.875L40.7289 21.8254C42.4894 23.3415 44.088 24.8966 45.588 26.5403L45.6232 26.5828C47.088 28.1911 48.4859 29.9375 49.7641 31.7689L49.8732 31.9354C51.0493 33.6074 52.2359 35.5416 53.3028 37.5466L53.4507 37.8477C53.7359 38.3932 54.0246 39.0627 54.2746 39.7464L54.3134 39.8633C54.5411 40.5198 54.7958 41.1929 55.0775 41.8825C55.7019 43.3112 56.3709 44.753 57.0845 46.2078C57.7981 47.6625 58.4671 49.0771 59.0915 50.4516L60.9648 54.5643C61.6232 56.0025 62.3592 57.2423 63.2148 58.3865L63.1761 58.3334C63.8908 59.1021 64.8451 59.6405 65.9155 59.8283L65.9437 59.8318C67.2394 60.1577 68.331 60.5262 69.3873 60.9619L69.2218 60.9016C69.7253 61.1319 70.3732 61.3763 71.0387 61.5924L71.1796 61.6314C71.9261 61.8616 72.5739 62.1663 73.169 62.5489L73.1373 62.5312C74.2887 63.1794 75.2641 63.817 76.1937 64.5114L76.1197 64.4582C77.0845 65.1714 78.0493 65.8445 79.0141 66.4774C79.4695 66.8198 80.2336 67.3193 81.3063 67.9758C82.3791 68.6324 82.9472 69.2464 83.0106 69.8179C82.6092 69.8037 82.1338 69.7931 81.6585 69.7931C79.9261 69.7931 78.2218 69.9064 76.5528 70.1261L76.75 70.1048C74.8627 70.3599 73.1514 70.8239 71.5423 71.4864L71.6831 71.4368C71.2852 71.6103 70.8099 71.7697 70.3169 71.8937L70.25 71.9079C69.75 71.9823 69.3627 72.3861 69.3134 72.8891C69.5282 73.1584 69.7007 73.4736 69.8169 73.8137L69.8239 73.835C69.9437 74.1963 70.088 74.508 70.2641 74.7985L70.2535 74.7773C70.6725 75.5247 71.1232 76.1694 71.6303 76.7645L71.6162 76.7468C72.1127 77.3632 72.6725 77.8981 73.2922 78.3551L73.3169 78.3728C73.8897 78.8309 74.4859 79.3021 75.1056 79.7862C75.6725 80.2326 76.3134 80.6718 76.9789 81.0686L77.0634 81.1146C78.0634 81.731 79.2254 82.319 80.4366 82.8114L80.5986 82.8681C81.9155 83.3995 83.0458 84.0158 84.0951 84.7491L84.0387 84.7101C84.7218 85.1093 85.4026 85.5521 86.081 86.0386C86.7594 86.525 87.412 86.9962 88.0387 87.452C88.2958 87.707 88.5211 87.9904 88.7113 88.2986L88.7218 88.3163C89.0422 88.6847 89.4859 88.9362 89.9894 89H90V88.83C89.6901 88.5926 89.4613 88.2632 89.3521 87.8841L89.3486 87.87C89.2606 87.5086 89.1303 87.1934 88.9542 86.9029L88.9613 86.9171L88.9753 86.9312ZM23.5669 18.8994C23.1115 18.8994 22.6854 18.9135 22.2887 18.9419C21.8838 18.9702 21.507 19.0446 21.1514 19.165L21.1831 19.1544V19.2394H21.3521C21.5798 19.5819 21.8662 19.9668 22.2113 20.3942C22.5563 20.8217 22.8685 21.2362 23.1479 21.6376L24.5106 24.4645L24.6796 24.3795C25.0775 24.089 25.3838 23.6993 25.5669 23.2423L25.5739 23.2246C25.757 22.7322 25.8627 22.1584 25.8627 21.5632C25.8627 21.4995 25.8627 21.4357 25.8592 21.372V21.3826C25.7007 21.2267 25.5704 21.0425 25.4789 20.8371L25.4754 20.8264L25.1901 20.1817C25.0035 19.8841 24.743 19.6503 24.4366 19.5016L24.4261 19.498C24.0951 19.3386 23.8134 19.1367 23.5669 18.8994Z" fill="#00758F" stroke="#222222" stroke-width="1.5"/>
</g>
<defs>
<clipPath id="clip0_430_247">
<rect width="88.1526" height="88.1526" fill="white" transform="translate(0.588745 0.875854)"/>
</clipPath>
</defs>
</svg>
