<svg width="50" height="80" viewBox="0 0 50 80" fill="none" xmlns="http://www.w3.org/2000/svg">
<path d="M25.75 39.5C25.75 32.4002 31.0662 26.75 37.5 26.75C43.9393 26.75 49.25 32.3944 49.25 39.5C49.25 46.6 43.9391 52.25 37.5 52.25C31.0713 52.25 25.75 46.6052 25.75 39.5Z" fill="#1ABCFE" stroke="#222222" stroke-width="1.5"/>
<path d="M0.75 66.6687C0.75 59.6991 6.25497 54.0815 13 54.0815H25.25V66.6687C25.25 73.6324 19.7452 79.2501 13 79.2501C6.25476 79.2501 0.75 73.6324 0.75 66.6687Z" fill="#0ACF83" stroke="#222222" stroke-width="1.5"/>
<path d="M37 25.9186H24.75V0.75H37C43.7507 0.75 49.25 6.36751 49.25 13.3314C49.25 20.3013 43.7505 25.9186 37 25.9186Z" fill="#FF7262" stroke="#222222" stroke-width="1.5"/>
<path d="M13 25.9186C6.25497 25.9186 0.75 20.301 0.75 13.3314C0.75 6.36772 6.25476 0.75 13 0.75H25.25V25.9186H13Z" fill="#F24E1E" stroke="#222222" stroke-width="1.5"/>
<path d="M13 52.5813C6.25456 52.5813 0.75 46.9691 0.75 39.9999C0.75 33.0252 6.25435 27.4185 13 27.4185H25.25V52.5813H13Z" fill="#A259FF" stroke="#222222" stroke-width="1.5"/>
</svg>
