<svg width="17" height="16" viewBox="0 0 17 16" fill="none" xmlns="http://www.w3.org/2000/svg">
<g id="icon-linkedin">
<path id="Vector" d="M3.53135 5.13144H0.412598V16H3.53135V5.13144Z" fill="#222222"/>
<path id="Vector_2" d="M1.90625 0C0.75625 0 0 0.809869 0 1.88516C0 2.94003 0.73125 3.77031 1.8625 3.77031H1.8875C3.0625 3.77031 3.79375 2.93322 3.7875 1.88516C3.7625 0.809869 3.05625 0 1.90625 0Z" fill="#222222"/>
<path id="Vector_3" d="M12.0499 5.02934C10.2624 5.02934 9.14365 6.09102 8.9374 6.83964V5.13143H5.43115C5.4749 6.03657 5.43115 16 5.43115 16H8.9374V10.1267C8.9374 9.79327 8.9249 9.4666 9.0124 9.23521C9.2499 8.58187 9.76865 7.90131 10.6999 7.90131C11.9187 7.90131 12.4687 8.90854 12.4687 10.3786V16H16.0062V9.95661C16.0062 6.59464 14.2687 5.02934 12.0499 5.02934Z" fill="#222222"/>
</g>
</svg>
