<svg width="32" height="33" viewBox="0 0 32 33" fill="none" xmlns="http://www.w3.org/2000/svg">
<g clip-path="url(#clip0_218_566)">
<path fill-rule="evenodd" clip-rule="evenodd" d="M24.1886 27.9256C27.5992 28.057 30.4668 25.2437 30.6 21.6358V12.2942C30.4668 8.68643 27.5992 5.87306 24.1886 6.00442H7.41136C4.00089 5.87306 1.13317 8.68643 1 12.2942V21.6358C1.13317 25.2437 4.00089 28.057 7.41136 27.9256H24.1886Z" stroke="#222222" stroke-width="2" stroke-linecap="round" stroke-linejoin="round"/>
<path fill-rule="evenodd" clip-rule="evenodd" d="M15.0719 12.5416L19.7502 15.9049C20.0533 16.0921 20.2396 16.4355 20.2396 16.8068C20.2396 17.1782 20.0533 17.5216 19.7502 17.7087L15.0719 21.3883C14.1839 22.0256 12.8401 21.4822 12.8401 20.4864V13.4404C12.8401 12.4492 14.1854 11.9043 15.0719 12.5416Z" stroke="#222222" stroke-width="2" stroke-linecap="round" stroke-linejoin="round"/>
</g>
<defs>
<clipPath id="clip0_218_566">
<rect width="32" height="32" fill="white" transform="translate(0 0.5)"/>
</clipPath>
</defs>
</svg>
