<svg width="17" height="12" viewBox="0 0 17 12" fill="none" xmlns="http://www.w3.org/2000/svg">
<g id="icon-burger">
<path id="Vector" d="M1.52419 0C1.09662 0 0.75 0.424156 0.75 0.947368C0.75 1.47058 1.09662 1.89474 1.52419 1.89474V0ZM15.9758 1.89474C16.4034 1.89474 16.75 1.47058 16.75 0.947368C16.75 0.424156 16.4034 0 15.9758 0V1.89474ZM1.52419 5.05263C1.09662 5.05263 0.75 5.4768 0.75 6C0.75 6.5232 1.09662 6.94737 1.52419 6.94737V5.05263ZM13.9113 6.94737C14.3389 6.94737 14.6855 6.5232 14.6855 6C14.6855 5.4768 14.3389 5.05263 13.9113 5.05263V6.94737ZM1.52419 10.1053C1.09662 10.1053 0.75 10.5294 0.75 11.0526C0.75 11.5758 1.09662 12 1.52419 12V10.1053ZM8.75 12C9.17756 12 9.52419 11.5758 9.52419 11.0526C9.52419 10.5294 9.17756 10.1053 8.75 10.1053V12ZM1.52419 1.89474H15.9758V0H1.52419V1.89474ZM1.52419 6.94737H13.9113V5.05263H1.52419V6.94737ZM1.52419 12H8.75V10.1053H1.52419V12Z" fill="#222222"/>
</g>
</svg>
