<svg width="90" height="90" viewBox="0 0 90 90" fill="none" xmlns="http://www.w3.org/2000/svg">
<path d="M55.9798 46.1865L56.0524 45.3701H55.2328H37.6791H34.7671H26.0974L23.8196 19.75H66.1803L65.4873 27.5421H33.1822H32.3625L32.4351 28.3585L33.2628 37.6702L33.3236 38.3538H34.0099H64.5258L62.1692 64.8736L44.9999 69.2263L27.8313 64.8736L26.6612 51.7108H34.5107L35.0842 58.1542L35.1314 58.6839L35.6469 58.8147L44.8155 61.1399L44.9999 61.1867L45.1843 61.1399L54.353 58.8147L54.8685 58.6839L54.9156 58.1541L55.9798 46.1865Z" fill="#FBFEFD" stroke="#222222" stroke-width="1.5"/>
<path d="M6.82332 3.75H83.1767L76.2076 78.3613L45 86.2265L13.7922 78.3613L6.90961 4.67374L6.90961 4.67374L6.82332 3.75ZM69.4315 73.2015L69.9456 73.0719L69.9949 72.544L75.7226 11.2255L75.7992 10.4057H74.9758H15.024H14.2007L14.2772 11.2255L20.0051 72.544L20.0544 73.0719L20.5685 73.2015L44.8167 79.313L45 79.3592L45.1833 79.313L69.4315 73.2015Z" fill="#FBFEFD" stroke="#222222" stroke-width="1.5"/>
</svg>
