<svg width="89" height="90" viewBox="0 0 89 90" fill="none" xmlns="http://www.w3.org/2000/svg">
<path d="M84.0719 41.7993L84.1581 41.8855L84.1599 41.8864C84.9405 42.7055 85.4197 43.8157 85.4197 45.0347C85.4197 46.2958 84.907 47.4402 84.0782 48.2667L84.0774 48.2674L48.1718 84.1731C47.3424 85.0025 46.2031 85.5126 44.9391 85.5126C43.6745 85.5126 42.533 85.0021 41.7072 84.1738L41.7063 84.173L5.63224 48.1099C5.63175 48.1094 5.63126 48.1089 5.63077 48.1084C4.8066 47.2764 4.29871 46.1341 4.29871 44.8695C4.29871 43.6036 4.80475 42.4614 5.62847 41.63C5.62881 41.6297 5.62915 41.6293 5.62949 41.629L29.8333 17.4414L38.2987 25.9468C38.0611 26.6557 37.933 27.413 37.933 28.2004C37.933 30.9628 39.514 33.3553 41.8503 34.5361V56.2601C41.158 56.6103 40.5298 57.0664 39.9874 57.6088L39.9867 57.6095C38.7089 58.8904 37.9192 60.6572 37.9192 62.6102C37.9192 66.5229 41.0924 69.6961 45.0052 69.6961C48.918 69.6961 52.0912 66.5229 52.0912 62.6102C52.0912 60.0054 50.6852 57.7325 48.5678 56.4877V36.2743L55.5158 43.1865C55.2899 43.8786 55.1668 44.6172 55.1668 45.3846C55.1668 49.2919 58.3345 52.4595 62.2418 52.4595C66.1491 52.4595 69.3167 49.2919 69.3167 45.3846C69.3167 41.4773 66.1491 38.3097 62.2418 38.3097C61.599 38.3097 60.9722 38.3963 60.3966 38.553L51.8861 30.0374C52.0471 29.4451 52.1325 28.8236 52.1325 28.1811C52.1325 24.2711 48.9648 21.1034 45.0548 21.1034C44.4213 21.1034 43.8047 21.1859 43.2361 21.3376L34.5835 12.685L41.5266 5.72913C41.5268 5.72893 41.527 5.72872 41.5272 5.72852C42.3565 4.90189 43.4986 4.3916 44.7628 4.3916C46.0269 4.3916 47.1689 4.90184 47.9982 5.7284C47.9985 5.72864 47.9987 5.72889 47.999 5.72913L84.0719 41.7993Z" fill="#EE513B" stroke="#222222" stroke-width="1.5"/>
</svg>
