<svg width="89" height="90" viewBox="0 0 89 90" fill="none" xmlns="http://www.w3.org/2000/svg">
<path d="M18.8054 72.9121L18.8505 73.4345L19.3566 73.5715L44.3039 80.3287L44.5 80.3818L44.6961 80.3287L69.6434 73.5715L70.1495 73.4345L70.1946 72.9121L75.5998 10.2549L75.6701 9.44048H74.8526H14.1474H13.3299L13.4001 10.2549L18.8054 72.9121ZM44.5 87.2232L12.5612 78.6075L5.81961 2.75H83.1804L76.4388 78.6075L44.5 87.2232Z" fill="#FBFEFD" stroke="#222222" stroke-width="1.5"/>
<path d="M26.0471 64.0959L24.2104 50.7625H32.725V57.3625V57.9957L33.3492 58.1019L44.1492 59.9394L44.2807 59.9618L44.4119 59.9374L54.3119 58.0999L54.925 57.9861V57.3625V46.3375V45.5875H54.175H24.0469L23.4823 37.9022C23.7038 37.9033 23.9083 37.9048 24.103 37.9062C24.8152 37.9114 25.3955 37.9155 26.1917 37.9H26.2753H26.3662H26.457H26.5477H26.6383H26.7289H26.8194H26.9098H27.0002H27.0905H27.1807H27.2708H27.3609H27.4509H27.5408H27.6306H27.7204H27.81H27.8996H27.9892H28.0786H28.168H28.2573H28.3465H28.4356H28.5246H28.6136H28.7025H28.7913H28.88H28.9686H29.0572H29.1456H29.234H29.3223H29.4106H29.4987H29.5867H29.6747H29.7626H29.8503H29.938H30.0257H30.1132H30.2006H30.288H30.3752H30.4624H30.5495H30.6364H30.7233H30.8101H30.8968H30.9835H31.07H31.1564H31.2428H31.329H31.4152H31.5012H31.5872H31.673H31.7588H31.8445H31.9301H32.0155H32.1009H32.1862H32.2714H32.3565H32.4415H32.5263H32.6111H32.6958H32.7804H32.8649H32.9493H33.0335H33.1177H33.2018H33.2857H33.3696H33.4534H33.537H33.6206H33.704H33.7873H33.8706H33.9537H34.0367H34.1196H34.2024H34.2851H34.3677H34.4502H34.5325H34.6148H34.6969H34.779H34.8609H34.9427H35.0244H35.1059H35.1874H35.2688H35.35H35.4311H35.5121H35.593H35.6738H35.7545H35.835H35.9155H35.9958H36.076H36.156H36.236H36.3158H36.3955H36.4751H36.5546H36.634H36.7132H36.7923H36.8713H36.9502H37.0289H37.1075H37.186H37.2644H37.3427H37.4208H37.4988H37.5766H37.6544H37.732H37.8095H37.8869H37.9641H38.0412H38.1182H38.195H38.2717H38.3483H38.4248H38.5011H38.5773H38.6534H38.7293H38.8051H38.8808H38.9563H39.0317H39.107H39.1821H39.2571H39.332H39.4067H39.4813H39.5557H39.63H39.7042H39.7782H39.8521H39.9259H39.9995H40.073H40.1463H40.2195H40.2926H40.3655H40.4383H40.5109H40.5834H40.6557H40.7279H40.8H40.8719H40.9437H41.0153H41.0868H41.1581H41.2293H41.3003H41.3712H41.442H41.5126H41.583H41.6533H41.7235H41.7935H41.8633H41.933H42.0025H42.0719H42.1412H42.2103H42.2792H42.348H42.4166H42.4851H42.5534H42.6216H42.6896H42.7574H42.8251H42.8927H42.9601H43.0273H43.0944H43.1613H43.228H43.2946H43.3611H43.4273H43.4934H43.5594H43.6252H43.6908H43.7563H43.8216H43.8867H43.9517H44.0165H44.0812H44.1457H44.21H44.2741H44.3381H44.4019H44.4656H44.5291H44.5924H44.6556H44.7185H44.7814H44.844H44.9065H44.9688H45.0309H45.0929H45.1547H45.2163H45.2778H45.339H45.4001H45.4611H45.5218H45.5824H45.6428H45.703H45.7631H45.823H45.8827H45.9422H46.0016H46.0607H46.1197H46.1786H46.2372H46.2957H46.3539H46.412H46.4699H46.5277H46.5852H46.6426H46.6998H46.7568H46.8136H46.8703H46.9267H46.983H47.0391H47.095H47.1507H47.2062H47.2616H47.3168H47.3717H47.4265H47.4811H47.5355H47.5897H47.6438H47.6976H47.7512H47.8047H47.858H47.911H47.9639H48.0166H48.0691H48.1214H48.1735H48.2254H48.2772H48.3287H48.38H48.4311H48.4821H48.5328H48.5834H48.6337H48.6839H48.7338H48.7836H48.8331H48.8825H48.9316H48.9806H49.0294H49.0779H49.1263H49.1744H49.2223H49.2701H49.3176H49.365H49.4121H49.459H49.5058H49.5523H49.5986H49.6447H49.6906H49.7363H49.7818H49.827H49.8721H49.917H49.9616H50.0061H50.0503H50.0943H50.1381H50.1817H50.2251H50.2683H50.3112H50.354H50.3965H50.4388H50.4809H50.5228H50.5645H50.606H50.6472H50.6882H50.729H50.7696H50.81H50.8502H50.8901H50.9298H50.9693H51.0086H51.0477H51.0865H51.1252H51.1636H51.2017H51.2397H51.2774H51.3149H51.3522H51.3893H51.4261H51.4627H51.4991H51.5353H51.5712H51.6069H51.6424H51.6777H51.7127H51.7475H51.7821H51.8164H51.8505H51.8844H51.9181H51.9515H51.9847H52.0176H52.0504H52.0829H52.1151H52.1471H52.1789H52.2105H52.2418H52.2729H52.3038H52.3344H52.3648H52.3949H52.4249H52.4545H52.484H52.5132H52.5421H52.5708H52.5993H52.6276H52.6556H52.6833H52.7108H52.7381H52.7652H52.792H52.8185H52.8448H52.8709H52.8967H52.9223H52.9476H52.9727H52.9975H53.0221H53.0465H53.0706H53.0944H53.118H53.1414H53.1645H53.1873H53.2099H53.2323H53.2544H53.2763H53.2979H53.3192H53.3403H53.3612H53.3818H53.4021H53.4222H53.442H53.4616H53.4809H53.5H53.5188H53.5374H53.5557H53.5737H53.5915H53.609H53.6263H53.6433H53.6601H53.6766H53.6928H53.7088H53.7245H53.7399H53.7551H53.77H53.7847H53.7991H53.8132H53.8271H53.8407H53.8541H53.8671H53.88H53.8925H53.9048H53.9168H53.9285H53.94H53.9512H53.9622H53.9728H53.9833H53.9934H54.0033H54.0128H54.0222H54.0312H54.04H54.0485H54.0567H54.0647H54.0724H54.0798H54.0869H54.0938H54.1004H54.1067H54.1127H54.1185H54.124H54.1292H54.1341H54.1388H54.1431H54.1472H54.151H54.1546H54.1578H54.1608H54.1635H54.1659H54.168H54.1699H54.1714H54.1727H54.1737H54.1744H54.1749C54.175 37.9 54.175 37.9 54.175 37.15V37.9H54.925V37.15V29.8V29.05H54.175H24.0038L22.8604 20.75H66.1769L62.2504 62.912L44.2502 68.2253L26.0471 64.0959Z" fill="#FBFEFD" stroke="#222222" stroke-width="1.5"/>
</svg>
