<svg width="89" height="90" viewBox="0 0 89 90" fill="none" xmlns="http://www.w3.org/2000/svg">
<g clip-path="url(#clip0_430_230)">
<path d="M44.3526 1.62587H4.79174C4.86539 2.40519 6.36856 20.311 8.13339 41.6973C9.02404 52.4901 9.84374 62.3405 10.4447 69.5163C10.7452 73.1041 10.991 76.0232 11.1636 78.057C11.25 79.074 11.318 79.8693 11.3653 80.4161C11.3827 80.6158 11.3972 80.782 11.4088 80.9136C11.4213 80.9178 11.4344 80.9222 11.4481 80.9267C11.8055 81.0449 12.4517 81.2168 13.6047 81.4906C15.8981 82.0352 20.0909 82.9587 27.7243 84.6292L44.3526 88.2608L60.981 84.6292C60.9811 84.6292 60.9812 84.6292 60.9813 84.6291C68.6145 82.9587 72.8072 82.0352 75.1005 81.4906C76.2536 81.2168 76.8998 81.0449 77.2572 80.9267C77.2709 80.9222 77.2839 80.9178 77.2964 80.9136C77.3081 80.782 77.3226 80.6158 77.3399 80.4161C77.3873 79.8693 77.4553 79.074 77.5416 78.057C77.7143 76.0232 77.9601 73.1041 78.2606 69.5163C78.8615 62.3405 79.6812 52.4901 80.5719 41.6973C82.3367 20.311 83.84 2.4052 83.9135 1.62587H44.3526ZM58.2276 79.2606L58.2274 79.2607L44.5127 82.2559L44.3526 82.2908L44.1926 82.2559L30.4779 79.2607L30.4776 79.2606C26.1888 78.3222 22.7565 77.5554 20.3952 77.0078C19.2155 76.7342 18.2984 76.5143 17.6742 76.3545C17.3637 76.275 17.1166 76.2082 16.9432 76.1556C16.8594 76.1302 16.7758 76.1031 16.7062 76.0754C16.6756 76.0633 16.6189 76.0399 16.5596 76.0052C16.5328 75.9895 16.4716 75.9523 16.4076 75.8909L16.4075 75.8908C16.3709 75.8556 16.1732 75.6659 16.1732 75.3434C16.1732 75.3655 16.1731 75.3644 16.1689 75.3087C16.1671 75.2854 16.1646 75.2526 16.1611 75.208C16.1517 75.0881 16.1377 74.9127 16.1192 74.6843C16.0822 74.2277 16.0277 73.5614 15.9575 72.7079C15.8171 71.001 15.6142 68.5466 15.3639 65.5267C14.8634 59.4868 14.1737 51.1855 13.4171 42.0793C12.6604 32.9731 11.9707 24.6586 11.4702 18.5991C11.2199 15.5694 11.0169 13.1032 10.8765 11.3836C10.8063 10.5239 10.7517 9.8504 10.7146 9.38628C10.6961 9.15433 10.6819 8.97399 10.6723 8.84862L10.6708 8.82862C10.6637 8.73595 10.6558 8.63292 10.6558 8.58772C10.6558 8.37831 10.7363 8.14993 10.929 7.97733C11.0744 7.84711 11.2363 7.79362 11.3236 7.76886C11.5078 7.71659 11.7579 7.68885 12.0689 7.66759C12.7203 7.62306 13.9052 7.59349 16.049 7.57308C20.3493 7.53216 28.5908 7.52786 44.3526 7.52786C57.7277 7.52786 65.9671 7.53647 70.8629 7.56876C73.3094 7.5849 74.9275 7.60699 75.9359 7.63713C76.4375 7.65212 76.8016 7.66946 77.0453 7.69042C77.1625 7.70051 77.2778 7.71346 77.3742 7.73325C77.4159 7.74181 77.4991 7.76027 77.5876 7.79992C77.6297 7.81879 77.7185 7.86211 77.8075 7.94539C77.8997 8.03175 78.0495 8.219 78.0495 8.50165C78.0495 8.54352 78.0417 8.64182 78.035 8.72717L78.0329 8.75452C78.0233 8.87646 78.0091 9.05351 77.9906 9.28244C77.9536 9.74048 77.899 10.4082 77.8288 11.2627C77.6883 12.9717 77.4854 15.4286 77.2351 18.4508C76.7346 24.4952 76.0449 32.801 75.2882 41.9071C74.5315 51.0133 73.8419 59.3275 73.3414 65.3845C73.0911 68.413 72.8882 70.877 72.7478 72.5935C72.6776 73.4518 72.6231 74.1229 72.5862 74.584C72.5677 74.8147 72.5536 74.9923 72.5442 75.1142C72.5404 75.1635 72.5378 75.1988 72.536 75.2231C72.5323 75.2734 72.5321 75.2764 72.5321 75.2573C72.5321 75.5948 72.3264 75.7988 72.2501 75.866C72.1582 75.947 72.0605 75.9999 71.995 76.032C71.8574 76.0997 71.68 76.1626 71.4781 76.2254C71.0637 76.3545 70.4048 76.5257 69.4084 76.7636C67.4078 77.2411 63.9715 78.0045 58.2276 79.2606Z" fill="#FBFEFD" stroke="#222222" stroke-width="1.5"/>
<path d="M34.7151 64.6457V65.5834L33.8003 65.3773L31.4209 64.8413L31.4199 64.8411L29.0248 64.305L28.4855 64.1843L28.441 63.6335L28.1435 59.9491L28.1435 59.9488L27.9019 56.971H25.2421C23.9082 56.971 23.1362 56.9747 22.6855 56.9982C22.7628 58.0974 22.9815 60.7174 23.2095 63.3151C23.3484 64.8981 23.4891 66.4558 23.6 67.6223C23.6555 68.2061 23.7032 68.6895 23.7394 69.0286C23.741 69.0434 23.7425 69.0579 23.7441 69.0721C23.8197 69.0908 23.9043 69.1114 23.9974 69.134C24.4637 69.2467 25.1279 69.4018 25.9268 69.5853C27.5237 69.9521 29.6497 70.4301 31.7864 70.9045C33.9231 71.3789 36.0688 71.8494 37.7051 72.2012C38.5236 72.3771 39.2128 72.5229 39.7092 72.6246C39.7531 72.6336 39.7954 72.6422 39.8361 72.6505C39.8669 72.0841 39.8893 71.1008 39.9042 69.4028C39.9375 65.6256 39.9336 58.3953 39.9179 44.5799C39.9179 44.5798 39.9179 44.5796 39.9179 44.5795L39.8721 16.3929L37.2931 16.3525L37.2891 16.3525L34.7151 16.3258V40.0982V64.6457ZM40.4837 72.7737C40.4836 72.7737 40.4824 72.7736 40.4803 72.7733L40.4837 72.7737Z" fill="#FBFEFD" stroke="#222222" stroke-width="1.5"/>
<path d="M49.05 16.3907C48.9802 16.3925 48.9146 16.3943 48.8532 16.3962C48.8492 16.5762 48.8452 16.7915 48.8413 17.0403C48.8282 17.8867 48.8166 19.1069 48.8068 20.6112C48.7873 23.6192 48.7756 27.7563 48.7756 32.2963V48.0324H54.3423H60.659H61.4304L61.4087 48.8035L61.3933 49.3504C61.3901 49.574 61.3204 50.5188 61.2195 51.8056C61.1141 53.1501 60.9697 54.9245 60.8137 56.8021L60.8136 56.8031L60.2366 63.6362L60.1902 64.1849L59.6529 64.305L53.9289 65.5852L53.9285 65.5853L48.7756 66.7346V69.8354C48.7756 71.3024 48.7789 72.1613 48.8011 72.6675C48.8662 72.6543 48.936 72.64 49.0104 72.6247C49.5047 72.5231 50.1911 72.3772 51.0062 72.2013C52.6358 71.8496 54.7728 71.3791 56.9007 70.9047C59.0287 70.4302 61.146 69.9522 62.7363 69.5855C63.532 69.402 64.1934 69.2469 64.6578 69.1341C64.7456 69.1128 64.8258 69.0932 64.898 69.0752C64.913 68.9215 64.9307 68.7341 64.951 68.5157C65.014 67.8372 65.1011 66.8665 65.2048 65.6907C65.4121 63.3396 65.6854 60.1725 65.9651 56.8925C66.463 51.0549 66.9803 44.8682 67.1816 42.2856C66.8761 42.2827 66.4905 42.2799 66.0397 42.2775C64.8404 42.271 63.1846 42.2667 61.3608 42.2667H54.7322H53.9822V41.5167V32.2617V23.0066V22.2566H54.7322H62.1095H68.8108L68.9419 20.645L68.9423 20.6403C69.0511 19.3999 69.1752 17.7293 69.2215 16.9425L69.2218 16.9371L69.2627 16.318H59.1461C56.1455 16.318 53.4072 16.331 51.4143 16.3525C50.4174 16.3633 49.6098 16.3763 49.05 16.3907ZM48.2394 72.7738C48.2394 72.7738 48.2405 72.7737 48.243 72.7734L48.2394 72.7738Z" fill="#FBFEFD" stroke="#222222" stroke-width="1.5"/>
</g>
<defs>
<clipPath id="clip0_430_230">
<rect width="88.1526" height="88.1526" fill="white" transform="translate(0.684448 0.875854)"/>
</clipPath>
</defs>
</svg>
