<svg width="19" height="44" viewBox="0 0 19 44" fill="none" xmlns="http://www.w3.org/2000/svg">
<g id="icon-arrows">
<path id="Vector" d="M18 1L9.79999 9.2L1.6 0.999999" stroke="black" stroke-width="2" stroke-miterlimit="10"/>
<path id="Vector_2" d="M18 1L9.79999 9.2L1.6 0.999999" stroke="black" stroke-opacity="0.2" stroke-width="2" stroke-miterlimit="10"/>
<path id="Vector_3" d="M18 9.2002L9.79999 17.3002L1.6 9.20019" stroke="black" stroke-width="2" stroke-miterlimit="10"/>
<path id="Vector_4" d="M18 9.2002L9.79999 17.3002L1.6 9.20019" stroke="black" stroke-opacity="0.2" stroke-width="2" stroke-miterlimit="10"/>
<path id="Vector_5" d="M18 17.2998L9.79999 25.4998L1.6 17.2998" stroke="black" stroke-width="2" stroke-miterlimit="10"/>
<path id="Vector_6" d="M18 17.2998L9.79999 25.4998L1.6 17.2998" stroke="black" stroke-opacity="0.2" stroke-width="2" stroke-miterlimit="10"/>
<path id="Vector_7" d="M18 25.5L9.79999 33.6L1.6 25.5" stroke="black" stroke-width="2" stroke-miterlimit="10"/>
<path id="Vector_8" d="M18 25.5L9.79999 33.6L1.6 25.5" stroke="black" stroke-opacity="0.2" stroke-width="2" stroke-miterlimit="10"/>
<path id="Vector_9" d="M18 33.5996L9.79999 41.7996L1.6 33.5996" stroke="black" stroke-width="2" stroke-miterlimit="10"/>
<path id="Vector_10" d="M18 33.5996L9.79999 41.7996L1.6 33.5996" stroke="black" stroke-opacity="0.2" stroke-width="2" stroke-miterlimit="10"/>
</g>
</svg>
