<svg width="90" height="90" viewBox="0 0 90 90" fill="none" xmlns="http://www.w3.org/2000/svg">
<g clip-path="url(#clip0_430_252)">
<mask id="path-1-inside-1_430_252" fill="white">
<path fill-rule="evenodd" clip-rule="evenodd" d="M20.8288 27.0264L16.6875 24.655C16.4272 24.5016 16.2655 24.2248 16.2655 23.9243V18.8786C16.2655 18.5782 16.1057 18.2994 15.8449 18.15L14.082 17.1343C13.9543 17.0579 13.8064 17.0204 13.6633 17.0204C13.5163 17.0204 13.3725 17.0579 13.2413 17.1343L11.4772 18.15C11.2162 18.2996 11.0571 18.5783 11.0571 18.8786V23.9243C11.0571 24.2248 10.8973 24.4997 10.636 24.655L6.49331 27.0264C6.3647 27.1052 6.20492 27.1052 6.07511 27.0264C5.94322 26.9539 5.86505 26.8139 5.86505 26.6636L5.84973 15.8627C5.84973 15.5598 6.01123 15.2816 6.27104 15.1314L13.2411 11.1202C13.3608 11.0508 13.4925 11.0151 13.6254 11.0095C13.6357 11.0095 13.686 11.0095 13.6981 11.0095C13.8317 11.0151 13.9634 11.0508 14.0818 11.1202L21.0514 15.1316C21.3131 15.2819 21.472 15.56 21.472 15.8628L21.4586 26.6638C21.4586 26.8141 21.3778 26.954 21.2492 27.0265C21.121 27.1054 20.9586 27.1054 20.8288 27.0264ZM47.6409 24.1313V16.0817C47.6409 15.7807 47.8014 15.5032 48.0616 15.353L55.0351 11.3288C55.2947 11.1785 55.6155 11.178 55.8765 11.3281L57.6216 12.3343C57.7132 12.3872 57.826 12.3872 57.9169 12.3343C58.0073 12.2815 58.0639 12.1842 58.0639 12.0792V1.38257C58.0639 1.23295 58.143 1.09556 58.2714 1.01928C58.4007 0.944045 58.5598 0.94284 58.6903 1.0155L62.8393 3.33088C63.1065 3.47912 63.2715 3.76114 63.2715 4.06606V24.1313C63.2715 24.4324 63.111 24.7098 62.8502 24.8606L55.8768 28.8874C55.6165 29.0389 55.2951 29.0389 55.034 28.8874L48.0619 24.8606C47.8014 24.7098 47.6409 24.4322 47.6409 24.1313ZM52.8344 21.4869C52.8344 21.5619 52.8743 21.6313 52.9392 21.6689L55.3334 23.0486C55.3984 23.0855 55.4786 23.0855 55.5435 23.0486L57.9377 21.6689C58.0026 21.6313 58.0426 21.5619 58.0426 21.4869V18.7221C58.0426 18.647 58.0026 18.577 57.9377 18.5401L55.5442 17.1571C55.4786 17.1195 55.3984 17.1195 55.3328 17.1571L52.9385 18.5401C52.8743 18.577 52.8344 18.647 52.8344 18.7221V21.4869ZM83.6351 15.2435L76.7077 11.2207C76.4472 11.0692 76.1252 11.0687 75.8644 11.22L68.8936 15.2435C68.6333 15.3938 68.473 15.6719 68.473 15.9729V24.0199C68.473 24.3227 68.6359 24.6015 68.8983 24.7518L75.8251 28.6982C76.0801 28.8447 76.394 28.8452 76.6505 28.7033L80.8398 26.3747C80.9728 26.3001 81.0556 26.1608 81.0563 26.0093C81.0575 25.8578 80.9767 25.7172 80.8448 25.6414L73.8308 21.6153C73.7003 21.5402 73.6194 21.4008 73.6194 21.25V18.7285C73.6194 18.5782 73.6997 18.4389 73.8302 18.3631L76.0131 17.1042C76.143 17.0297 76.3034 17.0297 76.4331 17.1042L78.6174 18.3631C78.7479 18.4389 78.8282 18.5783 78.8282 18.7285V20.7128C78.8282 20.8631 78.9089 21.0024 79.0394 21.0774C79.1699 21.152 79.3302 21.152 79.4607 21.0767L83.6351 18.65C83.8954 18.4991 84.0547 18.2218 84.0547 17.9213V15.9716C84.0545 15.6712 83.8954 15.3937 83.6351 15.2435ZM27.1809 24.7117L34.1505 28.7383C34.4115 28.8886 34.7321 28.8886 34.9931 28.7383L41.9653 24.7117C42.2256 24.5608 42.3859 24.2833 42.3859 23.9823V15.9296C42.3859 15.6292 42.2254 15.3504 41.9646 15.2003L34.9931 11.1775C34.7321 11.0267 34.4115 11.0267 34.151 11.1775L27.1809 15.2003C26.9199 15.3506 26.7596 15.6294 26.7596 15.9296V23.9823C26.7596 24.2835 26.9201 24.5608 27.1809 24.7117ZM68.7025 43.286L47.2095 30.8655C45.8608 30.0967 44.0522 30.0967 42.6922 30.8655L21.1984 43.286C19.8059 44.088 18.9442 45.5925 18.9442 47.2038V72.0093C18.9442 73.6196 19.8059 75.126 21.1984 75.9292L26.834 79.1757C29.5648 80.5198 30.5438 80.5198 31.7855 80.5198C35.8276 80.5198 38.1504 78.0746 38.1504 73.8104V49.3207C38.1504 48.9743 37.8679 48.7014 37.5275 48.7014H34.8017C34.4554 48.7014 34.1774 48.9743 34.1774 49.3207V73.8104C34.1774 75.7007 32.221 77.5819 29.0266 75.9865L23.1385 72.5828C22.931 72.4702 22.7991 72.2474 22.7991 72.0093V47.2038C22.7991 46.9685 22.931 46.7341 23.1397 46.6145L44.6207 34.2154C44.8197 34.0996 45.0845 34.0996 45.2825 34.2154L66.768 46.6112C66.9734 46.7341 67.1015 46.9605 67.1015 47.2037V72.0091C67.1015 72.2472 66.9735 72.475 66.7731 72.5895L45.2789 84.9963C45.095 85.1082 44.813 85.1082 44.6131 84.9963L39.0998 81.7225C38.9357 81.6283 38.7256 81.5926 38.5664 81.683C37.0402 82.5492 36.7513 82.663 35.3218 83.1596C34.968 83.283 34.4454 83.495 35.516 84.0926L42.6925 88.3389C43.3798 88.7371 44.162 88.9422 44.9468 88.9422C45.7429 88.9422 46.5225 88.7373 47.21 88.3389L68.703 75.929C70.0949 75.1189 70.9609 73.6195 70.9609 72.0091V47.2038C70.9606 45.5925 70.0944 44.0911 68.7025 43.286ZM52.4327 69.6431C46.0187 69.6431 44.6078 68.0318 44.135 64.8419C44.0802 64.5014 43.7886 64.2474 43.4387 64.2474H40.3048C39.9166 64.2474 39.6049 64.558 39.6049 64.9482C39.6049 69.0295 41.8267 73.8982 52.4329 73.8982C60.1126 73.8982 64.5163 70.875 64.5163 65.5941C64.5163 60.3575 60.9776 58.965 53.5301 57.9786C46.0029 56.9826 45.2381 56.469 45.2381 54.7061C45.2381 53.2536 45.886 51.3114 51.4611 51.3114C56.44 51.3114 58.2754 52.3842 59.0302 55.739C59.0965 56.0552 59.3842 56.2858 59.7099 56.2858H62.8557C63.0511 56.2858 63.2364 56.2018 63.3686 56.063C63.5015 55.916 63.5723 55.7243 63.5537 55.5232C63.0669 49.7418 59.2247 47.0478 51.4609 47.0478C44.5499 47.0478 40.4284 49.9645 40.4284 54.853C40.4284 60.1581 44.5294 61.6252 51.1605 62.2795C59.0963 63.0586 59.7123 64.2174 59.7123 65.7792C59.7123 68.4887 57.5388 69.6431 52.4327 69.6431ZM76.3441 18.2729C76.2945 18.2436 76.2328 18.2436 76.1831 18.2729L74.8458 19.0449C74.7955 19.0737 74.7649 19.1271 74.7649 19.1844V20.7303C74.7649 20.7877 74.7955 20.8412 74.8458 20.8698L76.1831 21.6418C76.2327 21.6706 76.2943 21.6706 76.3441 21.6418L77.6824 20.8698C77.7328 20.8412 77.7633 20.7877 77.7633 20.7303V19.1844C77.7633 19.1271 77.7328 19.0737 77.6824 19.0449L76.3441 18.2729Z"/>
</mask>
<path fill-rule="evenodd" clip-rule="evenodd" d="M20.8288 27.0264L16.6875 24.655C16.4272 24.5016 16.2655 24.2248 16.2655 23.9243V18.8786C16.2655 18.5782 16.1057 18.2994 15.8449 18.15L14.082 17.1343C13.9543 17.0579 13.8064 17.0204 13.6633 17.0204C13.5163 17.0204 13.3725 17.0579 13.2413 17.1343L11.4772 18.15C11.2162 18.2996 11.0571 18.5783 11.0571 18.8786V23.9243C11.0571 24.2248 10.8973 24.4997 10.636 24.655L6.49331 27.0264C6.3647 27.1052 6.20492 27.1052 6.07511 27.0264C5.94322 26.9539 5.86505 26.8139 5.86505 26.6636L5.84973 15.8627C5.84973 15.5598 6.01123 15.2816 6.27104 15.1314L13.2411 11.1202C13.3608 11.0508 13.4925 11.0151 13.6254 11.0095C13.6357 11.0095 13.686 11.0095 13.6981 11.0095C13.8317 11.0151 13.9634 11.0508 14.0818 11.1202L21.0514 15.1316C21.3131 15.2819 21.472 15.56 21.472 15.8628L21.4586 26.6638C21.4586 26.8141 21.3778 26.954 21.2492 27.0265C21.121 27.1054 20.9586 27.1054 20.8288 27.0264ZM47.6409 24.1313V16.0817C47.6409 15.7807 47.8014 15.5032 48.0616 15.353L55.0351 11.3288C55.2947 11.1785 55.6155 11.178 55.8765 11.3281L57.6216 12.3343C57.7132 12.3872 57.826 12.3872 57.9169 12.3343C58.0073 12.2815 58.0639 12.1842 58.0639 12.0792V1.38257C58.0639 1.23295 58.143 1.09556 58.2714 1.01928C58.4007 0.944045 58.5598 0.94284 58.6903 1.0155L62.8393 3.33088C63.1065 3.47912 63.2715 3.76114 63.2715 4.06606V24.1313C63.2715 24.4324 63.111 24.7098 62.8502 24.8606L55.8768 28.8874C55.6165 29.0389 55.2951 29.0389 55.034 28.8874L48.0619 24.8606C47.8014 24.7098 47.6409 24.4322 47.6409 24.1313ZM52.8344 21.4869C52.8344 21.5619 52.8743 21.6313 52.9392 21.6689L55.3334 23.0486C55.3984 23.0855 55.4786 23.0855 55.5435 23.0486L57.9377 21.6689C58.0026 21.6313 58.0426 21.5619 58.0426 21.4869V18.7221C58.0426 18.647 58.0026 18.577 57.9377 18.5401L55.5442 17.1571C55.4786 17.1195 55.3984 17.1195 55.3328 17.1571L52.9385 18.5401C52.8743 18.577 52.8344 18.647 52.8344 18.7221V21.4869ZM83.6351 15.2435L76.7077 11.2207C76.4472 11.0692 76.1252 11.0687 75.8644 11.22L68.8936 15.2435C68.6333 15.3938 68.473 15.6719 68.473 15.9729V24.0199C68.473 24.3227 68.6359 24.6015 68.8983 24.7518L75.8251 28.6982C76.0801 28.8447 76.394 28.8452 76.6505 28.7033L80.8398 26.3747C80.9728 26.3001 81.0556 26.1608 81.0563 26.0093C81.0575 25.8578 80.9767 25.7172 80.8448 25.6414L73.8308 21.6153C73.7003 21.5402 73.6194 21.4008 73.6194 21.25V18.7285C73.6194 18.5782 73.6997 18.4389 73.8302 18.3631L76.0131 17.1042C76.143 17.0297 76.3034 17.0297 76.4331 17.1042L78.6174 18.3631C78.7479 18.4389 78.8282 18.5783 78.8282 18.7285V20.7128C78.8282 20.8631 78.9089 21.0024 79.0394 21.0774C79.1699 21.152 79.3302 21.152 79.4607 21.0767L83.6351 18.65C83.8954 18.4991 84.0547 18.2218 84.0547 17.9213V15.9716C84.0545 15.6712 83.8954 15.3937 83.6351 15.2435ZM27.1809 24.7117L34.1505 28.7383C34.4115 28.8886 34.7321 28.8886 34.9931 28.7383L41.9653 24.7117C42.2256 24.5608 42.3859 24.2833 42.3859 23.9823V15.9296C42.3859 15.6292 42.2254 15.3504 41.9646 15.2003L34.9931 11.1775C34.7321 11.0267 34.4115 11.0267 34.151 11.1775L27.1809 15.2003C26.9199 15.3506 26.7596 15.6294 26.7596 15.9296V23.9823C26.7596 24.2835 26.9201 24.5608 27.1809 24.7117ZM68.7025 43.286L47.2095 30.8655C45.8608 30.0967 44.0522 30.0967 42.6922 30.8655L21.1984 43.286C19.8059 44.088 18.9442 45.5925 18.9442 47.2038V72.0093C18.9442 73.6196 19.8059 75.126 21.1984 75.9292L26.834 79.1757C29.5648 80.5198 30.5438 80.5198 31.7855 80.5198C35.8276 80.5198 38.1504 78.0746 38.1504 73.8104V49.3207C38.1504 48.9743 37.8679 48.7014 37.5275 48.7014H34.8017C34.4554 48.7014 34.1774 48.9743 34.1774 49.3207V73.8104C34.1774 75.7007 32.221 77.5819 29.0266 75.9865L23.1385 72.5828C22.931 72.4702 22.7991 72.2474 22.7991 72.0093V47.2038C22.7991 46.9685 22.931 46.7341 23.1397 46.6145L44.6207 34.2154C44.8197 34.0996 45.0845 34.0996 45.2825 34.2154L66.768 46.6112C66.9734 46.7341 67.1015 46.9605 67.1015 47.2037V72.0091C67.1015 72.2472 66.9735 72.475 66.7731 72.5895L45.2789 84.9963C45.095 85.1082 44.813 85.1082 44.6131 84.9963L39.0998 81.7225C38.9357 81.6283 38.7256 81.5926 38.5664 81.683C37.0402 82.5492 36.7513 82.663 35.3218 83.1596C34.968 83.283 34.4454 83.495 35.516 84.0926L42.6925 88.3389C43.3798 88.7371 44.162 88.9422 44.9468 88.9422C45.7429 88.9422 46.5225 88.7373 47.21 88.3389L68.703 75.929C70.0949 75.1189 70.9609 73.6195 70.9609 72.0091V47.2038C70.9606 45.5925 70.0944 44.0911 68.7025 43.286ZM52.4327 69.6431C46.0187 69.6431 44.6078 68.0318 44.135 64.8419C44.0802 64.5014 43.7886 64.2474 43.4387 64.2474H40.3048C39.9166 64.2474 39.6049 64.558 39.6049 64.9482C39.6049 69.0295 41.8267 73.8982 52.4329 73.8982C60.1126 73.8982 64.5163 70.875 64.5163 65.5941C64.5163 60.3575 60.9776 58.965 53.5301 57.9786C46.0029 56.9826 45.2381 56.469 45.2381 54.7061C45.2381 53.2536 45.886 51.3114 51.4611 51.3114C56.44 51.3114 58.2754 52.3842 59.0302 55.739C59.0965 56.0552 59.3842 56.2858 59.7099 56.2858H62.8557C63.0511 56.2858 63.2364 56.2018 63.3686 56.063C63.5015 55.916 63.5723 55.7243 63.5537 55.5232C63.0669 49.7418 59.2247 47.0478 51.4609 47.0478C44.5499 47.0478 40.4284 49.9645 40.4284 54.853C40.4284 60.1581 44.5294 61.6252 51.1605 62.2795C59.0963 63.0586 59.7123 64.2174 59.7123 65.7792C59.7123 68.4887 57.5388 69.6431 52.4327 69.6431ZM76.3441 18.2729C76.2945 18.2436 76.2328 18.2436 76.1831 18.2729L74.8458 19.0449C74.7955 19.0737 74.7649 19.1271 74.7649 19.1844V20.7303C74.7649 20.7877 74.7955 20.8412 74.8458 20.8698L76.1831 21.6418C76.2327 21.6706 76.2943 21.6706 76.3441 21.6418L77.6824 20.8698C77.7328 20.8412 77.7633 20.7877 77.7633 20.7303V19.1844C77.7633 19.1271 77.7328 19.0737 77.6824 19.0449L76.3441 18.2729Z" fill="#539E43" stroke="#222222" stroke-width="2" mask="url(#path-1-inside-1_430_252)"/>
</g>
<defs>
<clipPath id="clip0_430_252">
<rect width="88.1526" height="88.1526" fill="white" transform="translate(0.875854 0.875854)"/>
</clipPath>
</defs>
</svg>
