<svg width="33" height="33" viewBox="0 0 33 33" fill="none" xmlns="http://www.w3.org/2000/svg">
<g id="icon-diploma">
<path id="Vector" d="M32.4501 1.69351V24.7935C32.4501 25.3985 31.955 25.8935 31.35 25.8935H1.65005C1.04505 25.8935 0.550049 25.3985 0.550049 24.7935V1.69351C0.550049 1.08851 1.04505 0.593506 1.65005 0.593506H31.35C31.955 0.593506 32.4501 1.08851 32.4501 1.69351Z" fill="#F9FDFE"/>
<path id="Vector_2" d="M3.30005 1.69351H32.4501C32.4501 1.08851 31.955 0.593506 31.35 0.593506H1.65005C1.04505 0.593506 0.550049 1.08851 0.550049 1.69351V24.7935C0.550049 25.3985 1.04505 25.8935 1.65005 25.8935H2.20005V2.79351C2.20005 2.18851 2.69505 1.69351 3.30005 1.69351Z" fill="#E7EDEF"/>
<path id="Vector_3" d="M31.35 26.4435H1.65C0.7425 26.4435 0 25.701 0 24.7935V1.69346C0 0.785957 0.7425 0.043457 1.65 0.043457H31.35C32.2575 0.043457 33 0.785957 33 1.69346V24.7935C33 25.701 32.2575 26.4435 31.35 26.4435ZM1.65 1.14346C1.3475 1.14346 1.1 1.39096 1.1 1.69346V24.7935C1.1 25.096 1.3475 25.3435 1.65 25.3435H31.35C31.6525 25.3435 31.9 25.096 31.9 24.7935V1.69346C31.9 1.39096 31.6525 1.14346 31.35 1.14346H1.65Z" fill="#132C47"/>
<path id="Vector_4" d="M30.25 24.1541V32.4041L26.95 30.2041L23.65 32.4041V24.1541H26.95H30.25Z" fill="#FCB23C"/>
<path id="Vector_5" d="M25.3 24.2434H23.65V32.404L25.3 31.304V24.2434Z" fill="#BD852D"/>
<path id="Vector_6" d="M28.6 30.2041L27.775 30.7541L30.25 32.4041V31.3041L28.6 30.2041Z" fill="#FDC163"/>
<path id="Vector_7" d="M30.25 32.9541C30.14 32.9541 30.0369 32.9266 29.9475 32.8648L26.95 30.871L23.9525 32.8648C23.7806 32.9748 23.5675 32.9885 23.3887 32.8923C23.21 32.796 23.1 32.6104 23.1 32.4041V24.1541C23.1 23.8516 23.3475 23.6041 23.65 23.6041H30.25C30.5525 23.6041 30.8 23.8516 30.8 24.1541V32.4041C30.8 32.6104 30.69 32.796 30.5112 32.8923C30.4287 32.9335 30.3394 32.9541 30.25 32.9541ZM26.95 29.6541C27.0531 29.6541 27.1631 29.6816 27.2525 29.7435L29.7 31.3729V24.6973H24.2V31.366L26.6475 29.7366C26.7369 29.6816 26.8469 29.6541 26.95 29.6541Z" fill="#132C47"/>
<path id="Vector_8" d="M26.9362 14.1853C29.9612 14.1853 32.4225 16.6397 32.4225 19.6647C32.4225 22.6966 29.9612 25.1509 26.9362 25.1509C23.9043 25.1509 21.45 22.6966 21.45 19.6647C21.45 16.6397 23.9043 14.1853 26.9362 14.1853Z" fill="#FDD18A"/>
<path id="Vector_9" d="M23.1343 19.4241C23.1343 16.9629 24.7568 14.8798 26.9981 14.1923C26.9775 14.1923 26.9568 14.1923 26.9362 14.1923C23.9043 14.1923 21.45 16.6466 21.45 19.6716C21.45 22.7035 23.9043 25.1579 26.9362 25.1579C27.4999 25.1579 28.0431 25.0754 28.5587 24.9173C25.5543 24.8691 23.1343 22.4354 23.1343 19.4241Z" fill="#BE9D68"/>
<g id="Group">
<path id="Vector_10" d="M26.9294 22.7653C26.6269 22.7653 26.3794 22.5178 26.3794 22.2153C26.3794 21.9128 26.6269 21.6653 26.9294 21.6653C28.0294 21.6653 28.93 20.7716 28.93 19.6647C28.93 18.5578 28.0363 17.6641 26.9294 17.6641C26.6269 17.6641 26.3794 17.4166 26.3794 17.1141C26.3794 16.8116 26.6269 16.5641 26.9294 16.5641C28.6413 16.5641 30.03 17.9528 30.03 19.6647C30.03 21.3766 28.6413 22.7653 26.9294 22.7653Z" fill="#132C47"/>
<path id="Vector_11" d="M32.9656 19.6648C32.9656 16.3441 30.2569 13.6354 26.9294 13.6354C23.6019 13.6354 20.9 16.3373 20.9 19.6648C20.9 22.8135 23.32 25.3985 26.4 25.6735V27.5435C26.4 27.846 26.6475 28.0935 26.95 28.0935C27.2525 28.0935 27.5 27.846 27.5 27.5435V25.6666C30.5594 25.3848 32.9656 22.7998 32.9656 19.6648ZM26.9363 24.601C24.2138 24.601 22 22.3873 22 19.6648C22 16.9491 24.2138 14.7354 26.9363 14.7354C29.6588 14.7354 31.8725 16.9491 31.8725 19.6648C31.8656 22.3873 29.6519 24.601 26.9363 24.601Z" fill="#132C47"/>
</g>
<path id="Vector_12" d="M8.80689 19.5822L7.27377 21.081L7.63127 23.1916L5.73377 22.1947L3.83627 23.1916L4.19377 21.081L2.66064 19.5822L4.78502 19.2797L5.73377 17.3547L6.68252 19.2797L8.80689 19.5822Z" fill="#FDD18A"/>
<g id="Group_2">
<path id="Vector_13" d="M8.42188 19.7747L8.58688 19.8022L8.80689 19.5822L8.29126 19.5134L8.42188 19.7747Z" fill="#FDDAA1"/>
<path id="Vector_14" d="M5.73377 22.1947L5.82314 22.2429L5.93314 21.5829L4.40002 20.0841L6.52439 19.7747L6.76502 19.2866L6.68252 19.2797L5.73377 17.3547L4.78502 19.2797L2.66064 19.5822L4.19377 21.081L3.83627 23.1916L5.73377 22.1947Z" fill="#FDDAA1"/>
<path id="Vector_15" d="M7.4663 22.6967L7.0813 22.9029L7.6313 23.1917L7.55567 22.7448L7.4663 22.6967Z" fill="#FDDAA1"/>
</g>
<path id="Vector_16" d="M3.83628 23.7416C3.7194 23.7416 3.6094 23.7072 3.51315 23.6384C3.34128 23.5147 3.25878 23.3084 3.29315 23.1022L3.6094 21.2734L2.27565 19.9809C2.1244 19.8366 2.0694 19.6166 2.13815 19.4172C2.20003 19.2178 2.3719 19.0734 2.58503 19.0459L4.42065 18.7778L5.23878 17.1141C5.32815 16.9284 5.52065 16.8047 5.73378 16.8047C5.94003 16.8047 6.13253 16.9216 6.22878 17.1141L7.05378 18.7778L8.8894 19.0459C9.09565 19.0734 9.26753 19.2178 9.33628 19.4172C9.39815 19.6166 9.35003 19.8366 9.19878 19.9809L7.8719 21.2734L8.18815 23.1022C8.22253 23.3084 8.14003 23.5147 7.96815 23.6384C7.79628 23.7622 7.57628 23.7759 7.39065 23.6797L5.74065 22.8203L4.09753 23.6797C4.00815 23.7209 3.91878 23.7416 3.83628 23.7416ZM5.73378 21.6447C5.82315 21.6447 5.90565 21.6653 5.98815 21.7066L6.9094 22.1878L6.73753 21.1703C6.71003 20.9916 6.76503 20.8128 6.89565 20.6822L7.63128 19.9672L6.61378 19.8159C6.43503 19.7884 6.2769 19.6784 6.20128 19.5134L5.74753 18.5922L5.29378 19.5134C5.21128 19.6784 5.06003 19.7884 4.88128 19.8159L3.86378 19.9672L4.5994 20.6822C4.73003 20.8059 4.78503 20.9916 4.75753 21.1703L4.58565 22.1878L5.49315 21.7066C5.55503 21.6653 5.6444 21.6447 5.73378 21.6447Z" fill="#132C47"/>
<path id="Vector_17" d="M17.6069 19.5822L16.0738 21.081L16.4313 23.1916L14.5338 22.1947L12.6363 23.1916L12.9938 21.081L11.4607 19.5822L13.5851 19.2797L14.5338 17.3547L15.4826 19.2797L17.6069 19.5822Z" fill="#FDD18A"/>
<g id="Group_3">
<path id="Vector_18" d="M17.4763 19.7128L17.6069 19.5822L17.4006 19.5547L17.4763 19.7128Z" fill="#FDDAA1"/>
<path id="Vector_19" d="M15.1938 21.9197L13.6538 20.4279L15.7782 20.1185L16.1426 19.376L15.4826 19.2797L14.5338 17.3547L13.5851 19.2797L11.4607 19.5822L12.9938 21.081L12.6363 23.1916L14.5338 22.1947L15.0907 22.4904L15.1938 21.9197Z" fill="#FDDAA1"/>
</g>
<g id="Group_4">
<path id="Vector_20" d="M12.6363 23.7416C12.5194 23.7416 12.4094 23.7072 12.3132 23.6384C12.1413 23.5147 12.0588 23.3084 12.0932 23.1022L12.4094 21.2734L11.0757 19.9809C10.9244 19.8366 10.8694 19.6166 10.9382 19.4172C11.0001 19.2178 11.1719 19.0734 11.3851 19.0459L13.2207 18.7778L14.0388 17.1141C14.1282 16.9284 14.3207 16.8047 14.5338 16.8047C14.7401 16.8047 14.9326 16.9216 15.0288 17.1141L15.8538 18.7778L17.6894 19.0459C17.8957 19.0734 18.0676 19.2178 18.1363 19.4172C18.1982 19.6166 18.1501 19.8366 17.9988 19.9809L16.6719 21.2734L16.9882 23.1022C17.0226 23.3084 16.9401 23.5147 16.7682 23.6384C16.5963 23.7622 16.3763 23.7759 16.1907 23.6797L14.5407 22.8203L12.8976 23.6797C12.8082 23.7209 12.7188 23.7416 12.6363 23.7416ZM14.5338 21.6447C14.6232 21.6447 14.7057 21.6653 14.7882 21.7066L15.7094 22.1878L15.5376 21.1703C15.5101 20.9916 15.5651 20.8128 15.6957 20.6822L16.4313 19.9672L15.4138 19.8159C15.2351 19.7884 15.0769 19.6784 15.0013 19.5134L14.5476 18.5922L14.0938 19.5134C14.0113 19.6784 13.8601 19.7884 13.6813 19.8159L12.6638 19.9672L13.3994 20.6822C13.5301 20.8059 13.5851 20.9916 13.5576 21.1703L13.3857 22.1878L14.2932 21.7066C14.3551 21.6653 14.4444 21.6447 14.5338 21.6447Z" fill="#132C47"/>
<path id="Vector_21" d="M12.65 4.99343H3.85005C3.54755 4.99343 3.30005 4.74593 3.30005 4.44343C3.30005 4.14093 3.54755 3.89343 3.85005 3.89343H12.65C12.9525 3.89343 13.2 4.14093 13.2 4.44343C13.2 4.74593 12.9525 4.99343 12.65 4.99343Z" fill="#132C47"/>
<path id="Vector_22" d="M29.15 8.29348H20.35C20.0475 8.29348 19.8 8.04598 19.8 7.74348C19.8 7.44098 20.0475 7.19348 20.35 7.19348H29.15C29.4525 7.19348 29.7 7.44098 29.7 7.74348C29.7 8.04598 29.4525 8.29348 29.15 8.29348Z" fill="#132C47"/>
<path id="Vector_23" d="M29.15 4.99343H14.85C14.5475 4.99343 14.3 4.74593 14.3 4.44343C14.3 4.14093 14.5475 3.89343 14.85 3.89343H29.15C29.4525 3.89343 29.7 4.14093 29.7 4.44343C29.7 4.74593 29.4525 4.99343 29.15 4.99343Z" fill="#132C47"/>
<path id="Vector_24" d="M18.15 8.29348H3.85005C3.54755 8.29348 3.30005 8.04598 3.30005 7.74348C3.30005 7.44098 3.54755 7.19348 3.85005 7.19348H18.15C18.4525 7.19348 18.7 7.44098 18.7 7.74348C18.7 8.04598 18.4525 8.29348 18.15 8.29348Z" fill="#132C47"/>
<path id="Vector_25" d="M12.65 11.5934H3.85005C3.54755 11.5934 3.30005 11.3459 3.30005 11.0434C3.30005 10.7409 3.54755 10.4934 3.85005 10.4934H12.65C12.9525 10.4934 13.2 10.7409 13.2 11.0434C13.2 11.3459 12.9525 11.5934 12.65 11.5934Z" fill="#132C47"/>
<path id="Vector_26" d="M29.15 11.5934H14.85C14.5475 11.5934 14.3 11.3459 14.3 11.0434C14.3 10.7409 14.5475 10.4934 14.85 10.4934H29.15C29.4525 10.4934 29.7 10.7409 29.7 11.0434C29.7 11.3459 29.4525 11.5934 29.15 11.5934Z" fill="#132C47"/>
<path id="Vector_27" d="M18.15 14.8935H3.85005C3.54755 14.8935 3.30005 14.646 3.30005 14.3435C3.30005 14.041 3.54755 13.7935 3.85005 13.7935H18.15C18.4525 13.7935 18.7 14.041 18.7 14.3435C18.7 14.646 18.4525 14.8935 18.15 14.8935Z" fill="#132C47"/>
</g>
</g>
</svg>
