<svg width="89" height="90" viewBox="0 0 89 90" fill="none" xmlns="http://www.w3.org/2000/svg">
<g clip-path="url(#clip0_430_258)">
<path d="M84.7681 11.0501L85.0083 11.1657C86.5207 11.9998 87.4754 13.6001 87.4754 15.3329V74.5466C87.4754 76.384 86.4352 78.043 84.7876 78.8347L84.7872 78.8349L66.636 87.573L66.6351 87.5735C64.8117 88.4542 62.6474 88.0816 61.2378 86.6601L61.2246 86.6468L61.2107 86.6342L26.4593 54.9268L25.9979 54.5057L25.5003 54.8835L10.3629 66.3764L10.3601 66.3785C9.24616 67.2325 7.68289 67.1667 6.62848 66.2167C6.62809 66.2164 6.62771 66.216 6.62732 66.2157L1.78182 61.7997L1.77903 61.7971C0.502625 60.6455 0.502825 58.6356 1.76764 57.4845L1.76839 57.4839L14.8976 45.5034L15.5047 44.9494L14.8976 44.3954L1.76839 32.4149L1.76764 32.4142C0.502825 31.2632 0.502625 29.2532 1.77904 28.1016L1.78182 28.0991L6.63021 23.6804L6.12501 23.1261L6.63022 23.6804C7.66842 22.7342 9.24414 22.6647 10.3601 23.5202L10.3632 23.5226L25.5007 35.0017L25.9981 35.379L26.4594 34.9581L61.1942 3.26454L61.2069 3.25297L61.219 3.24084C62.6439 1.81596 64.81 1.44501 66.6323 2.32527L66.6334 2.32578L84.7681 11.0501ZM65.7421 65.5657L66.9455 66.4791V64.9683V24.936V23.4251L65.7421 24.3386L39.3707 44.3547L38.5836 44.9521L39.3707 45.5495L65.7421 65.5657Z" fill="#1F9CF0" stroke="#222222" stroke-width="1.5"/>
</g>
<defs>
<clipPath id="clip0_430_258">
<rect width="88.1526" height="88.1526" fill="white" transform="translate(0.0672607 0.875854)"/>
</clipPath>
</defs>
</svg>
