<svg width="17" height="19" viewBox="0 0 17 19" fill="none" xmlns="http://www.w3.org/2000/svg">
<g id="icon-github">
<path id="Vector" d="M11.6301 18C11.6335 17.4637 11.6368 15.6023 11.6368 14.8653C11.6368 13.8003 11.2777 13.1034 10.875 12.7507C13.3752 12.4676 16 11.5029 16 7.11459C16 5.86773 15.5664 4.84773 14.8463 4.04965C14.9616 3.76065 15.3467 2.5989 14.7344 1.0264C14.7344 1.0264 13.7938 0.719484 11.6502 2.19849C10.7531 1.94429 9.79403 1.81851 8.84015 1.81346C7.88615 1.81851 6.92716 1.9444 6.02997 2.19849C3.88637 0.719484 2.94586 1.0264 2.94586 1.0264C2.3336 2.5989 2.71865 3.76065 2.83396 4.04965C2.11387 4.84773 1.68029 5.86773 1.68029 7.11459C1.68029 11.5029 4.30497 12.4676 6.80516 12.7507C6.40254 13.1034 6.04335 13.8003 6.04335 14.8653C6.04335 15.6023 6.04675 17.4637 6.05004 18M1 13.4054C2.1269 13.4862 2.7767 14.5236 2.7767 14.5236C3.77831 16.2694 5.40467 15.7645 6.0438 15.473" stroke="#222222" stroke-linecap="round" stroke-linejoin="round"/>
</g>
</svg>
