<svg width="20" height="20" viewBox="0 0 20 20" fill="none" xmlns="http://www.w3.org/2000/svg">
<g id="icon-briefcase">
<path id="Vector" d="M14 5V4.2C14 3.0799 14 2.51984 13.782 2.09202C13.5903 1.71569 13.2843 1.40973 12.908 1.21799C12.4802 1 11.9201 1 10.8 1H9.2C8.0799 1 7.51984 1 7.09202 1.21799C6.71569 1.40973 6.40973 1.71569 6.21799 2.09202C6 2.51984 6 3.0799 6 4.2V5M2 10.2361V14.2C2 15.8802 2 16.7202 2.32698 17.362C2.6146 17.9265 3.07354 18.3854 3.63803 18.673C4.27976 19 5.11984 19 6.8 19H13.2C14.8802 19 15.7202 19 16.362 18.673C16.9265 18.3854 17.3854 17.9265 17.673 17.362C18 16.7202 18 15.8802 18 14.2V10.2361M7 13V9M13 13V9M1 5H19V6.2C19 7.88016 19 8.7202 18.673 9.362C18.3854 9.9265 17.9265 10.3854 17.362 10.673C16.7202 11 15.8802 11 14.2 11H5.8C4.11984 11 3.27976 11 2.63803 10.673C2.07354 10.3854 1.6146 9.9265 1.32698 9.362C1 8.7202 1 7.88016 1 6.2V5Z" stroke="#FBFEFD" stroke-width="2" stroke-linecap="round" stroke-linejoin="round"/>
</g>
</svg>
