<svg width="155" height="32" viewBox="0 0 155 32" fill="none" xmlns="http://www.w3.org/2000/svg">
<g id="logo">
<path id="Vector" d="M12.579 0.43647C16.9836 0.610753 20.8636 2.61639 21.8029 7.24917C22.4411 10.3946 21.8841 14.1181 19.4108 16.3737C17.1452 18.4392 14.017 18.8311 11.0736 18.8551C8.0276 18.8791 4.98131 18.8843 1.93472 18.8708C1.52188 18.8689 0.88645 18.8358 0.347076 18.8745C0.33199 18.8755 0.316857 18.8734 0.302608 18.8684C0.288359 18.8633 0.275296 18.8554 0.264222 18.8451C0.253148 18.8348 0.244299 18.8224 0.238217 18.8086C0.232135 18.7948 0.228949 18.7798 0.228857 18.7647C0.197455 12.7146 0.170671 6.64057 0.235322 0.587699C0.235566 0.555332 0.248615 0.524373 0.271625 0.501572C0.294635 0.478771 0.32574 0.465977 0.358159 0.465978C3.73663 0.454912 7.09232 0.4294 10.4252 0.389441C11.1549 0.38022 11.8623 0.407884 12.579 0.43647ZM16.1644 5.1753C15.2851 4.47448 14.2747 4.05061 13.1332 3.90368C12.4534 3.81639 12.0227 3.77151 11.8411 3.76905C9.38004 3.742 6.91592 3.72233 4.44871 3.71004C4.43768 3.71004 4.42675 3.71218 4.41655 3.71635C4.40635 3.72052 4.39709 3.72664 4.38929 3.73434C4.38148 3.74205 4.37529 3.7512 4.37107 3.76127C4.36684 3.77134 4.36467 3.78213 4.36467 3.79303C4.3425 7.65215 4.2483 11.502 4.27693 15.3805C4.27717 15.4159 4.29136 15.4498 4.31642 15.4748C4.34148 15.4998 4.3754 15.514 4.41085 15.5142C6.44951 15.5235 8.49709 15.5152 10.5536 15.4893C12.6003 15.4635 15.1918 15.3519 16.616 13.6137C18.2822 11.5804 18.3634 6.92643 16.1644 5.1753Z" fill="#222222"/>
<path id="Vector_2" d="M36.5942 18.8155C32.7724 18.927 29.3385 18.8422 24.6799 18.8542C24.6448 18.8542 24.6285 18.837 24.631 18.8026C24.6411 18.6707 24.6143 18.5425 24.6143 18.4291C24.6014 12.4684 24.6054 6.51331 24.6263 0.563724C24.6266 0.53543 24.638 0.508361 24.658 0.488353C24.678 0.468345 24.7051 0.456998 24.7335 0.456757C28.253 0.441388 31.7829 0.418642 35.3233 0.388519C40.0927 0.347946 44.9877 1.68965 46.18 7.0168C46.8893 10.1843 46.398 13.9337 43.9394 16.263C41.9722 18.1276 39.2218 18.738 36.5942 18.8155ZM28.776 3.78381L28.7335 15.4091C28.7335 15.4264 28.7369 15.4435 28.7436 15.4594C28.7502 15.4754 28.76 15.4899 28.7723 15.502C28.7845 15.5142 28.7991 15.5238 28.8151 15.5304C28.8311 15.5369 28.8483 15.5402 28.8656 15.5401C30.935 15.5259 33.0008 15.5075 35.0628 15.4847C37.0153 15.4626 39.1506 15.3676 40.6589 13.9992C42.1634 12.6344 42.4063 10.3853 42.1883 8.49497C41.7939 5.06834 39.2513 3.84282 36.1083 3.77274C34.4157 3.73586 31.9889 3.72233 28.8277 3.73217C28.814 3.73217 28.8009 3.73761 28.7912 3.74729C28.7815 3.75698 28.776 3.77011 28.776 3.78381Z" fill="#222222"/>
<path id="Vector_3" d="M50.9955 18.8459C50.3595 18.8379 49.7487 18.8484 49.1631 18.8773C49.0781 18.8816 49.0356 18.841 49.0356 18.7555L49.0458 0.548979C49.0458 0.518653 49.058 0.48957 49.0796 0.468126C49.1013 0.446682 49.1306 0.434635 49.1613 0.434635C52.7306 0.433406 56.2996 0.424492 59.8684 0.407893C60.7298 0.40359 61.3449 0.414041 61.7137 0.439246C65.9936 0.73064 69.7886 2.6957 70.6651 7.28054C71.3725 10.9792 70.5801 15.0117 67.2044 17.1741C65.1171 18.5112 62.6317 18.8265 60.1889 18.8524C57.1244 18.8849 54.0599 18.8828 50.9955 18.8459ZM53.1955 3.85113L53.1631 15.4718C53.1631 15.5081 53.1813 15.5262 53.2176 15.5262C55.8628 15.5069 58.5366 15.5751 61.1891 15.423C63.4648 15.2929 65.6445 14.3219 66.3547 11.9806C66.8525 10.342 66.8387 8.13904 66.1016 6.58894C64.9545 4.17664 62.2087 3.77736 59.8213 3.75338C57.6311 3.73187 55.4635 3.72388 53.3183 3.72941C53.2859 3.72941 53.2548 3.7422 53.2318 3.765C53.2088 3.78781 53.1957 3.81876 53.1955 3.85113Z" fill="#222222"/>
<path id="Vector_4" d="M116.269 0.454557L112.657 0.492333C112.618 0.492733 112.588 0.524019 112.588 0.562213L112.617 3.3137C112.617 3.3519 112.649 3.38253 112.687 3.38213L116.3 3.34436C116.338 3.34396 116.369 3.31267 116.368 3.27448L116.339 0.522989C116.339 0.484795 116.308 0.454157 116.269 0.454557Z" fill="#222222"/>
<path id="Vector_5" d="M80.094 18.9999C77.7573 18.9962 75.1916 18.4107 73.736 16.394C72.455 14.6189 72.3193 11.9152 72.8947 9.88279C73.7028 7.02419 75.9924 5.74519 78.849 5.50175C79.0719 5.48331 79.687 5.46701 80.6943 5.45287C82.7422 5.42398 84.7904 5.4289 86.8389 5.46763C90.0041 5.52757 91.6914 8.07265 90.8371 10.9967C90.1269 13.4293 87.7865 13.5879 85.6761 13.599C82.6997 13.615 79.7095 13.6217 76.7054 13.6193C76.6923 13.6192 76.6794 13.6222 76.6677 13.628C76.656 13.6337 76.6457 13.6421 76.6378 13.6525C76.6298 13.6628 76.6244 13.6748 76.6218 13.6876C76.6193 13.7004 76.6198 13.7136 76.6232 13.7262C77.073 15.3787 78.353 16.0113 79.9767 16.0131C83.4248 16.018 86.8728 16.0183 90.3209 16.014C90.3584 16.014 90.3769 16.0325 90.3763 16.0694L90.3467 18.9058C90.3465 18.9197 90.3409 18.9329 90.331 18.9428C90.3212 18.9526 90.308 18.9582 90.2941 18.9584C86.8996 18.9904 83.4996 19.0042 80.094 18.9999ZM80.3424 8.39908C78.6098 8.39816 77.1662 8.77808 76.6389 10.5772C76.6241 10.6263 76.6423 10.6506 76.6934 10.65C79.9019 10.6248 83.0692 10.6147 86.1952 10.6196C87.0735 10.6205 87.3792 9.96578 87.2509 9.19027C87.1234 8.4166 86.4196 8.41384 85.7971 8.41107C83.9789 8.40369 82.1607 8.3997 80.3424 8.39908Z" fill="#222222"/>
<path id="Vector_6" d="M93.896 18.9649C93.5931 18.9624 93.2954 18.9639 93.0029 18.9695C92.994 18.9696 92.9851 18.9679 92.9768 18.9646C92.9686 18.9613 92.961 18.9563 92.9547 18.9501C92.9483 18.9438 92.9433 18.9364 92.9398 18.9281C92.9364 18.9199 92.9346 18.9111 92.9346 18.9022L92.9263 16.1026C92.9263 16.0863 92.9327 16.0708 92.9441 16.0592C92.9555 16.0476 92.971 16.041 92.9872 16.0408C97.1631 16.0137 101.339 16.0064 105.516 16.0187C106.374 16.0214 106.763 15.3676 106.666 14.5912C106.546 13.6469 105.886 13.61 105.099 13.6137C101.751 13.6303 99.1426 13.626 97.2727 13.6008C94.863 13.5676 92.9752 12.5902 92.7739 9.9916C92.5402 6.9873 94.4299 5.50082 97.232 5.47039C101.189 5.42675 105.138 5.41937 109.078 5.44826C109.102 5.44851 109.126 5.45852 109.143 5.47613C109.161 5.49375 109.17 5.51753 109.17 5.54232L109.161 8.24509C109.16 8.33853 109.114 8.38494 109.021 8.38433C105.355 8.38433 101.662 8.3917 97.9423 8.40646C97.5359 8.4083 96.9993 8.3705 96.8118 8.6333C96.3759 9.24191 96.3725 9.8164 96.8016 10.3568C96.9762 10.5772 97.256 10.6187 97.5091 10.6196C100.186 10.622 102.862 10.6223 105.539 10.6205C106.222 10.6205 107.101 10.6601 107.733 10.8317C109.447 11.2983 110.292 12.651 110.384 14.3634C110.542 17.2884 108.974 18.9851 105.977 18.9925C101.95 19.0017 97.9229 18.9925 93.896 18.9649Z" fill="#222222"/>
<path id="Vector_7" d="M112.634 18.7952L112.613 5.65851C112.613 5.65088 112.615 5.64333 112.618 5.63628C112.621 5.62923 112.625 5.62283 112.63 5.61743C112.636 5.61204 112.642 5.60776 112.649 5.60484C112.656 5.60192 112.664 5.60042 112.672 5.60042L116.299 5.58566C116.315 5.58566 116.33 5.59178 116.341 5.60268C116.351 5.61357 116.358 5.62835 116.358 5.64376L116.36 18.7924C116.36 18.8001 116.359 18.8076 116.356 18.8147C116.353 18.8217 116.349 18.8281 116.343 18.8335C116.338 18.8389 116.332 18.8432 116.324 18.8461C116.317 18.849 116.31 18.8505 116.302 18.8505L112.692 18.8533C112.676 18.8533 112.662 18.8472 112.651 18.8363C112.64 18.8254 112.634 18.8106 112.634 18.7952Z" fill="#222222"/>
<path id="Vector_8" d="M125.488 18.8284C123.009 18.7749 120.339 17.7578 119.287 15.316C118.565 13.6414 118.478 11.432 119.064 9.69375C119.884 7.25748 122.073 5.8918 124.582 5.68063C125.328 5.61854 125.955 5.5878 126.463 5.58842C130.783 5.59703 133.645 5.60071 135.047 5.59948C135.164 5.59948 135.264 5.60809 135.347 5.6253C135.381 5.63268 135.397 5.65327 135.397 5.68709C135.44 10.1219 135.457 15.0326 135.447 20.4191C135.446 20.9053 135.386 21.3725 135.267 21.8207C134.691 23.996 132.99 24.6387 130.903 24.6369C128.07 24.635 125.236 24.6375 122.402 24.6443C122.395 24.6443 122.388 24.6428 122.381 24.64C122.374 24.6372 122.368 24.6331 122.363 24.628C122.358 24.6228 122.354 24.6167 122.351 24.61C122.348 24.6033 122.347 24.5962 122.347 24.5889L122.351 21.7617C122.351 21.7039 122.38 21.6728 122.438 21.6685C122.765 21.6427 123.129 21.6897 123.43 21.6888C125.74 21.6808 128.05 21.6695 130.359 21.6547C131.871 21.6446 131.758 19.9045 131.686 18.8985C131.686 18.885 131.68 18.8723 131.67 18.8631C131.66 18.8538 131.647 18.8486 131.634 18.8487C129.579 18.868 127.54 18.8736 125.488 18.8284ZM123.382 9.55635C122.708 10.3448 122.536 11.3997 122.555 12.4048C122.595 14.463 123.707 15.849 125.927 15.8637C127.83 15.876 129.722 15.8806 131.603 15.8776C131.623 15.8776 131.641 15.8699 131.655 15.8562C131.668 15.8426 131.676 15.824 131.676 15.8047V8.59457C131.676 8.57638 131.669 8.55893 131.656 8.54599C131.643 8.53304 131.626 8.52565 131.608 8.52541C129.731 8.51188 127.847 8.52694 125.956 8.57059C124.953 8.59457 124.06 8.76239 123.382 9.55635Z" fill="#222222"/>
<path id="Vector_9" d="M142.065 8.61947C142.07 8.6459 142.073 8.68525 142.072 8.7375C142.034 12.048 142.015 15.3649 142.016 18.6882C142.016 18.7246 142.001 18.7595 141.976 18.7854C141.95 18.8113 141.915 18.8261 141.879 18.8265L138.316 18.8708C138.311 18.8709 138.306 18.8701 138.302 18.8683C138.297 18.8666 138.293 18.864 138.29 18.8606C138.286 18.8572 138.284 18.8532 138.282 18.8488C138.28 18.8444 138.279 18.8396 138.279 18.8348L138.314 5.75625C138.314 5.67141 138.356 5.62869 138.441 5.62807C142.368 5.59672 146.255 5.58689 150.102 5.59857C152.626 5.60594 154.119 7.02142 154.239 9.51394C154.272 10.1917 154.24 11.0548 154.238 11.5408C154.23 13.9245 154.222 16.3073 154.21 18.691C154.21 18.7271 154.195 18.7617 154.17 18.7872C154.144 18.8128 154.11 18.8272 154.074 18.8275L150.588 18.8708C150.52 18.8714 150.488 18.8382 150.49 18.7712C150.529 17.625 150.462 16.5443 150.491 15.4349C150.534 13.7235 150.488 12.0046 150.493 10.2922C150.497 9.03627 150.019 8.55584 148.747 8.54662C146.562 8.53064 144.366 8.51742 142.157 8.50697C142.143 8.50681 142.129 8.50977 142.117 8.51565C142.104 8.52154 142.093 8.53018 142.084 8.54097C142.075 8.55175 142.069 8.56439 142.066 8.57797C142.062 8.59156 142.062 8.60573 142.065 8.61947Z" fill="#222222"/>
<path id="Vector_10" d="M34.0562 28.6952C71.9656 28.694 109.878 28.6946 147.793 28.697C149.899 28.697 152.01 28.7302 154.112 28.7413C154.126 28.7413 154.14 28.7441 154.153 28.7496C154.166 28.7551 154.178 28.7631 154.188 28.7732C154.198 28.7833 154.206 28.7953 154.211 28.8085C154.217 28.8217 154.219 28.8359 154.219 28.8501L154.191 30.9535C154.191 30.9782 154.181 31.0018 154.164 31.0194C154.146 31.037 154.122 31.0471 154.097 31.0475C152.167 31.077 150.232 31.1398 148.301 31.1398C110.234 31.1385 72.1666 31.1385 34.0977 31.1398L34.0562 28.6952Z" fill="#222222"/>
<path id="Vector_11" d="M70.6135 28.4755L70.7 31.1657C67.8053 31.2279 65.4492 31.2601 63.6317 31.2621C48.4692 31.2763 25.9042 31.2438 0.268975 31.2296C0.199167 31.2296 0.132219 31.215 0.082857 31.1889C0.0334954 31.1628 0.00576351 31.1275 0.00576351 31.0906L6.71993e-10 28.5526C-3.55508e-06 28.5337 0.0141041 28.5155 0.0392716 28.502C0.0644391 28.4885 0.0986444 28.4808 0.134488 28.4806C5.15279 28.4308 10.1672 28.4684 15.1913 28.4714C29.1601 28.4782 43.1295 28.4782 57.0995 28.4714C61.6067 28.4694 66.1024 28.4288 70.6135 28.4755Z" fill="#EECF68"/>
</g>
</svg>
