<svg width="71" height="31" viewBox="0 0 71 31" fill="none" xmlns="http://www.w3.org/2000/svg">
<g id="logo">
<path id="Vector" d="M12.579 0.0488354C16.9836 0.223118 20.8636 2.22875 21.8029 6.86154C22.4411 10.0069 21.8841 13.7305 19.4108 15.986C17.1452 18.0516 14.017 18.4435 11.0736 18.4675C8.0276 18.4915 4.98131 18.4967 1.93472 18.4832C1.52188 18.4813 0.88645 18.4481 0.347076 18.4868C0.33199 18.4879 0.316857 18.4858 0.302608 18.4807C0.288359 18.4757 0.275296 18.4678 0.264222 18.4575C0.253148 18.4472 0.244299 18.4348 0.238217 18.4209C0.232135 18.4071 0.228949 18.3922 0.228857 18.3771C0.197455 12.327 0.170671 6.25293 0.235322 0.200065C0.235566 0.167698 0.248615 0.136739 0.271625 0.113938C0.294635 0.091137 0.32574 0.0783427 0.358159 0.0783436C3.73663 0.067278 7.09232 0.0417656 10.4252 0.00180656C11.1549 -0.00741475 11.8623 0.0202494 12.579 0.0488354ZM16.1644 4.78767C15.2851 4.08685 14.2747 3.66297 13.1332 3.51605C12.4534 3.42875 12.0227 3.38388 11.8411 3.38142C9.38004 3.35437 6.91592 3.3347 4.44871 3.3224C4.43768 3.3224 4.42675 3.32455 4.41655 3.32872C4.40635 3.33289 4.39709 3.339 4.38929 3.34671C4.38148 3.35442 4.37529 3.36356 4.37107 3.37363C4.36684 3.3837 4.36467 3.39449 4.36467 3.40539C4.3425 7.26451 4.2483 11.1144 4.27693 14.9929C4.27717 15.0283 4.29136 15.0621 4.31642 15.0872C4.34148 15.1122 4.3754 15.1264 4.41085 15.1266C6.44951 15.1358 8.49709 15.1275 10.5536 15.1017C12.6003 15.0759 15.1918 14.9643 16.616 13.2261C18.2822 11.1928 18.3634 6.53879 16.1644 4.78767Z" fill="white"/>
<path id="Vector_2" d="M36.5942 18.4278C32.7724 18.5394 29.3385 18.4546 24.6799 18.4666C24.6448 18.4666 24.6285 18.4493 24.631 18.4149C24.6411 18.2831 24.6143 18.1549 24.6143 18.0415C24.6014 12.0808 24.6054 6.12568 24.6263 0.17609C24.6266 0.147795 24.638 0.120727 24.658 0.100719C24.678 0.0807106 24.7051 0.0693635 24.7335 0.0691227C28.253 0.0537538 31.7829 0.0310081 35.3233 0.000885155C40.0927 -0.0396886 44.9877 1.30201 46.18 6.62916C46.8893 9.79668 46.398 13.5461 43.9394 15.8754C41.9722 17.7399 39.2218 18.3504 36.5942 18.4278ZM28.776 3.39617L28.7335 15.0215C28.7335 15.0388 28.7369 15.0559 28.7436 15.0718C28.7502 15.0877 28.76 15.1022 28.7723 15.1144C28.7845 15.1266 28.7991 15.1362 28.8151 15.1427C28.8311 15.1492 28.8483 15.1525 28.8656 15.1524C30.935 15.1383 33.0008 15.1198 35.0628 15.0971C37.0153 15.075 39.1506 14.98 40.6589 13.6115C42.1634 12.2468 42.4063 9.99771 42.1883 8.10734C41.7939 4.6807 39.2513 3.45519 36.1083 3.38511C34.4157 3.34822 31.9889 3.3347 28.8277 3.34453C28.814 3.34453 28.8009 3.34997 28.7912 3.35966C28.7815 3.36934 28.776 3.38248 28.776 3.39617Z" fill="white"/>
<path id="Vector_3" d="M50.9955 18.4582C50.3595 18.4502 49.7487 18.4607 49.1631 18.4896C49.0781 18.4939 49.0356 18.4533 49.0356 18.3679L49.0458 0.161314C49.0458 0.130988 49.058 0.101905 49.0796 0.0804612C49.1013 0.0590175 49.1306 0.0469703 49.1613 0.0469703C52.7306 0.0457408 56.2996 0.0368268 59.8684 0.0202284C60.7298 0.0159252 61.3449 0.0263763 61.7137 0.0515813C65.9936 0.342975 69.7886 2.30804 70.6651 6.89287C71.3725 10.5915 70.5801 14.624 67.2044 16.7864C65.1171 18.1235 62.6317 18.4389 60.1889 18.4647C57.1244 18.4973 54.0599 18.4951 50.9955 18.4582ZM53.1955 3.46347L53.1631 15.0842C53.1631 15.1204 53.1813 15.1386 53.2176 15.1386C55.8628 15.1192 58.5366 15.1874 61.1891 15.0353C63.4648 14.9053 65.6445 13.9343 66.3547 11.593C66.8525 9.95435 66.8387 7.75138 66.1016 6.20127C64.9545 3.78898 62.2087 3.3897 59.8213 3.36572C57.6311 3.3442 55.4635 3.33621 53.3183 3.34175C53.2859 3.34174 53.2548 3.35454 53.2318 3.37734C53.2088 3.40014 53.1957 3.4311 53.1955 3.46347Z" fill="white"/>
<path id="Vector_4" d="M70.6135 28.0878L70.7 30.7781C67.8053 30.8403 65.4492 30.8724 63.6317 30.8745C48.4692 30.8887 25.9042 30.8562 0.268975 30.842C0.199167 30.842 0.132219 30.8274 0.082857 30.8013C0.0334954 30.7752 0.00576351 30.7398 0.00576351 30.703L6.71993e-10 28.165C-3.55508e-06 28.146 0.0141041 28.1279 0.0392716 28.1144C0.0644391 28.1009 0.0986444 28.0932 0.134488 28.0929C5.15279 28.0432 10.1672 28.0807 15.1913 28.0838C29.1601 28.0906 43.1295 28.0906 57.0995 28.0838C61.6067 28.0818 66.1024 28.0412 70.6135 28.0878Z" fill="#EECF68"/>
</g>
</svg>
